<mxfile host="app.diagrams.net" modified="2024-06-21T13:58:55.952Z" agent="Mozilla/5.0 (Windows NT 10.0; Win64; x64) AppleWebKit/537.36 (KHTML, like Gecko) Chrome/121.0.0.0 Safari/537.36" etag="NGdWg0OiBp_mhz36qekE" version="24.6.0" type="device">
  <diagram name="Página-1" id="aHu4FCKGCrDBaM6owpHq">
    <mxGraphModel dx="1914" dy="1008" grid="1" gridSize="10" guides="1" tooltips="1" connect="1" arrows="1" fold="1" page="1" pageScale="1" pageWidth="827" pageHeight="1169" math="0" shadow="0">
      <root>
        <mxCell id="0" />
        <mxCell id="1" parent="0" />
        <mxCell id="OaFdz0dTEYkGmEEMwskl-1" value="" style="shape=ext;double=1;rounded=1;whiteSpace=wrap;html=1;rotation=90;" parent="1" vertex="1">
          <mxGeometry x="-75" y="155" width="480" height="250" as="geometry" />
        </mxCell>
        <mxCell id="OaFdz0dTEYkGmEEMwskl-8" value="" style="group" parent="1" vertex="1" connectable="0">
          <mxGeometry x="110" y="200" width="120" height="270" as="geometry" />
        </mxCell>
        <mxCell id="OaFdz0dTEYkGmEEMwskl-2" value="Fornecedor" style="shape=ext;double=1;rounded=1;whiteSpace=wrap;html=1;" parent="OaFdz0dTEYkGmEEMwskl-8" vertex="1">
          <mxGeometry width="120" height="30" as="geometry" />
        </mxCell>
        <mxCell id="OaFdz0dTEYkGmEEMwskl-3" value="Matéria-prima" style="shape=ext;double=1;rounded=1;whiteSpace=wrap;html=1;" parent="OaFdz0dTEYkGmEEMwskl-8" vertex="1">
          <mxGeometry y="60" width="120" height="30" as="geometry" />
        </mxCell>
        <mxCell id="OaFdz0dTEYkGmEEMwskl-4" value="setores" style="shape=ext;double=1;rounded=1;whiteSpace=wrap;html=1;" parent="OaFdz0dTEYkGmEEMwskl-8" vertex="1">
          <mxGeometry y="180" width="120" height="30" as="geometry" />
        </mxCell>
        <mxCell id="OaFdz0dTEYkGmEEMwskl-5" value="Cliente" style="shape=ext;double=1;rounded=1;whiteSpace=wrap;html=1;" parent="OaFdz0dTEYkGmEEMwskl-8" vertex="1">
          <mxGeometry y="120" width="120" height="30" as="geometry" />
        </mxCell>
        <mxCell id="OaFdz0dTEYkGmEEMwskl-6" value="Pedido" style="shape=ext;double=1;rounded=1;whiteSpace=wrap;html=1;" parent="OaFdz0dTEYkGmEEMwskl-8" vertex="1">
          <mxGeometry y="240" width="120" height="30" as="geometry" />
        </mxCell>
        <mxCell id="OaFdz0dTEYkGmEEMwskl-9" value="Inicio" style="ellipse;shape=doubleEllipse;whiteSpace=wrap;html=1;" parent="1" vertex="1">
          <mxGeometry x="107" y="95" width="116" height="60" as="geometry" />
        </mxCell>
        <mxCell id="OaFdz0dTEYkGmEEMwskl-10" value="" style="shape=ext;double=1;rounded=1;whiteSpace=wrap;html=1;rotation=90;" parent="1" vertex="1">
          <mxGeometry x="290" y="155" width="480" height="250" as="geometry" />
        </mxCell>
        <mxCell id="OaFdz0dTEYkGmEEMwskl-11" value="" style="group" parent="1" vertex="1" connectable="0">
          <mxGeometry x="472" y="170" width="120" height="270" as="geometry" />
        </mxCell>
        <mxCell id="OaFdz0dTEYkGmEEMwskl-12" value="Costura" style="shape=ext;double=1;rounded=1;whiteSpace=wrap;html=1;" parent="OaFdz0dTEYkGmEEMwskl-11" vertex="1">
          <mxGeometry width="120" height="30" as="geometry" />
        </mxCell>
        <mxCell id="OaFdz0dTEYkGmEEMwskl-13" value="Silk/Bordado" style="shape=ext;double=1;rounded=1;whiteSpace=wrap;html=1;" parent="OaFdz0dTEYkGmEEMwskl-11" vertex="1">
          <mxGeometry y="60" width="120" height="30" as="geometry" />
        </mxCell>
        <mxCell id="OaFdz0dTEYkGmEEMwskl-14" value="Estoque" style="shape=ext;double=1;rounded=1;whiteSpace=wrap;html=1;" parent="OaFdz0dTEYkGmEEMwskl-11" vertex="1">
          <mxGeometry y="180" width="120" height="30" as="geometry" />
        </mxCell>
        <mxCell id="OaFdz0dTEYkGmEEMwskl-15" value="Acabamento&amp;nbsp;" style="shape=ext;double=1;rounded=1;whiteSpace=wrap;html=1;" parent="OaFdz0dTEYkGmEEMwskl-11" vertex="1">
          <mxGeometry y="120" width="120" height="30" as="geometry" />
        </mxCell>
        <mxCell id="OaFdz0dTEYkGmEEMwskl-16" value="Corte" style="shape=ext;double=1;rounded=1;whiteSpace=wrap;html=1;" parent="OaFdz0dTEYkGmEEMwskl-11" vertex="1">
          <mxGeometry y="240" width="120" height="30" as="geometry" />
        </mxCell>
        <mxCell id="FoYIN4kyer_GURNDrp6f-1" value="Inicio" style="ellipse;shape=doubleEllipse;whiteSpace=wrap;html=1;" vertex="1" parent="1">
          <mxGeometry x="472" y="70" width="116" height="60" as="geometry" />
        </mxCell>
        <mxCell id="FoYIN4kyer_GURNDrp6f-47" value="" style="group" vertex="1" connectable="0" parent="1">
          <mxGeometry x="432" y="460" width="200" height="30" as="geometry" />
        </mxCell>
        <mxCell id="FoYIN4kyer_GURNDrp6f-45" value="Voltar" style="shape=ext;double=1;rounded=1;whiteSpace=wrap;html=1;" vertex="1" parent="FoYIN4kyer_GURNDrp6f-47">
          <mxGeometry width="70" height="30" as="geometry" />
        </mxCell>
        <mxCell id="FoYIN4kyer_GURNDrp6f-46" value="Continuar" style="shape=ext;double=1;rounded=1;whiteSpace=wrap;html=1;" vertex="1" parent="FoYIN4kyer_GURNDrp6f-47">
          <mxGeometry x="130" width="70" height="30" as="geometry" />
        </mxCell>
        <mxCell id="FoYIN4kyer_GURNDrp6f-55" value="" style="group" vertex="1" connectable="0" parent="1">
          <mxGeometry x="39.999999999999986" y="565" width="250" height="480" as="geometry" />
        </mxCell>
        <mxCell id="FoYIN4kyer_GURNDrp6f-2" value="" style="shape=ext;double=1;rounded=1;whiteSpace=wrap;html=1;rotation=90;" vertex="1" parent="FoYIN4kyer_GURNDrp6f-55">
          <mxGeometry x="-114.99999999999999" y="115" width="480" height="250" as="geometry" />
        </mxCell>
        <mxCell id="FoYIN4kyer_GURNDrp6f-42" value="Matéria-Prima" style="ellipse;shape=doubleEllipse;whiteSpace=wrap;html=1;" vertex="1" parent="FoYIN4kyer_GURNDrp6f-55">
          <mxGeometry x="72.00000000000001" y="55" width="116" height="60" as="geometry" />
        </mxCell>
        <mxCell id="FoYIN4kyer_GURNDrp6f-44" value="" style="group" vertex="1" connectable="0" parent="FoYIN4kyer_GURNDrp6f-55">
          <mxGeometry x="40.000000000000014" y="145" width="180" height="220" as="geometry" />
        </mxCell>
        <mxCell id="FoYIN4kyer_GURNDrp6f-3" value="" style="shape=table;startSize=0;container=1;collapsible=0;childLayout=tableLayout;fontSize=16;" vertex="1" parent="FoYIN4kyer_GURNDrp6f-44">
          <mxGeometry y="40" width="180" height="180" as="geometry" />
        </mxCell>
        <mxCell id="FoYIN4kyer_GURNDrp6f-4" value="" style="shape=tableRow;horizontal=0;startSize=0;swimlaneHead=0;swimlaneBody=0;strokeColor=inherit;top=0;left=0;bottom=0;right=0;collapsible=0;dropTarget=0;fillColor=none;points=[[0,0.5],[1,0.5]];portConstraint=eastwest;fontSize=16;" vertex="1" parent="FoYIN4kyer_GURNDrp6f-3">
          <mxGeometry width="180" height="20" as="geometry" />
        </mxCell>
        <mxCell id="FoYIN4kyer_GURNDrp6f-5" value="" style="shape=partialRectangle;html=1;whiteSpace=wrap;connectable=0;strokeColor=inherit;overflow=hidden;fillColor=none;top=0;left=0;bottom=0;right=0;pointerEvents=1;fontSize=16;" vertex="1" parent="FoYIN4kyer_GURNDrp6f-4">
          <mxGeometry width="60" height="20" as="geometry">
            <mxRectangle width="60" height="20" as="alternateBounds" />
          </mxGeometry>
        </mxCell>
        <mxCell id="FoYIN4kyer_GURNDrp6f-6" value="" style="shape=partialRectangle;html=1;whiteSpace=wrap;connectable=0;strokeColor=inherit;overflow=hidden;fillColor=none;top=0;left=0;bottom=0;right=0;pointerEvents=1;fontSize=16;" vertex="1" parent="FoYIN4kyer_GURNDrp6f-4">
          <mxGeometry x="60" width="60" height="20" as="geometry">
            <mxRectangle width="60" height="20" as="alternateBounds" />
          </mxGeometry>
        </mxCell>
        <mxCell id="FoYIN4kyer_GURNDrp6f-7" value="" style="shape=partialRectangle;html=1;whiteSpace=wrap;connectable=0;strokeColor=inherit;overflow=hidden;fillColor=none;top=0;left=0;bottom=0;right=0;pointerEvents=1;fontSize=16;" vertex="1" parent="FoYIN4kyer_GURNDrp6f-4">
          <mxGeometry x="120" width="60" height="20" as="geometry">
            <mxRectangle width="60" height="20" as="alternateBounds" />
          </mxGeometry>
        </mxCell>
        <mxCell id="FoYIN4kyer_GURNDrp6f-8" value="" style="shape=tableRow;horizontal=0;startSize=0;swimlaneHead=0;swimlaneBody=0;strokeColor=inherit;top=0;left=0;bottom=0;right=0;collapsible=0;dropTarget=0;fillColor=none;points=[[0,0.5],[1,0.5]];portConstraint=eastwest;fontSize=16;" vertex="1" parent="FoYIN4kyer_GURNDrp6f-3">
          <mxGeometry y="20" width="180" height="20" as="geometry" />
        </mxCell>
        <mxCell id="FoYIN4kyer_GURNDrp6f-9" value="" style="shape=partialRectangle;html=1;whiteSpace=wrap;connectable=0;strokeColor=inherit;overflow=hidden;fillColor=none;top=0;left=0;bottom=0;right=0;pointerEvents=1;fontSize=16;" vertex="1" parent="FoYIN4kyer_GURNDrp6f-8">
          <mxGeometry width="60" height="20" as="geometry">
            <mxRectangle width="60" height="20" as="alternateBounds" />
          </mxGeometry>
        </mxCell>
        <mxCell id="FoYIN4kyer_GURNDrp6f-10" value="" style="shape=partialRectangle;html=1;whiteSpace=wrap;connectable=0;strokeColor=inherit;overflow=hidden;fillColor=none;top=0;left=0;bottom=0;right=0;pointerEvents=1;fontSize=16;" vertex="1" parent="FoYIN4kyer_GURNDrp6f-8">
          <mxGeometry x="60" width="60" height="20" as="geometry">
            <mxRectangle width="60" height="20" as="alternateBounds" />
          </mxGeometry>
        </mxCell>
        <mxCell id="FoYIN4kyer_GURNDrp6f-11" value="" style="shape=partialRectangle;html=1;whiteSpace=wrap;connectable=0;strokeColor=inherit;overflow=hidden;fillColor=none;top=0;left=0;bottom=0;right=0;pointerEvents=1;fontSize=16;" vertex="1" parent="FoYIN4kyer_GURNDrp6f-8">
          <mxGeometry x="120" width="60" height="20" as="geometry">
            <mxRectangle width="60" height="20" as="alternateBounds" />
          </mxGeometry>
        </mxCell>
        <mxCell id="FoYIN4kyer_GURNDrp6f-12" value="" style="shape=tableRow;horizontal=0;startSize=0;swimlaneHead=0;swimlaneBody=0;strokeColor=inherit;top=0;left=0;bottom=0;right=0;collapsible=0;dropTarget=0;fillColor=none;points=[[0,0.5],[1,0.5]];portConstraint=eastwest;fontSize=16;" vertex="1" parent="FoYIN4kyer_GURNDrp6f-3">
          <mxGeometry y="40" width="180" height="20" as="geometry" />
        </mxCell>
        <mxCell id="FoYIN4kyer_GURNDrp6f-13" value="" style="shape=partialRectangle;html=1;whiteSpace=wrap;connectable=0;strokeColor=inherit;overflow=hidden;fillColor=none;top=0;left=0;bottom=0;right=0;pointerEvents=1;fontSize=16;" vertex="1" parent="FoYIN4kyer_GURNDrp6f-12">
          <mxGeometry width="60" height="20" as="geometry">
            <mxRectangle width="60" height="20" as="alternateBounds" />
          </mxGeometry>
        </mxCell>
        <mxCell id="FoYIN4kyer_GURNDrp6f-14" value="" style="shape=partialRectangle;html=1;whiteSpace=wrap;connectable=0;strokeColor=inherit;overflow=hidden;fillColor=none;top=0;left=0;bottom=0;right=0;pointerEvents=1;fontSize=16;" vertex="1" parent="FoYIN4kyer_GURNDrp6f-12">
          <mxGeometry x="60" width="60" height="20" as="geometry">
            <mxRectangle width="60" height="20" as="alternateBounds" />
          </mxGeometry>
        </mxCell>
        <mxCell id="FoYIN4kyer_GURNDrp6f-15" value="" style="shape=partialRectangle;html=1;whiteSpace=wrap;connectable=0;strokeColor=inherit;overflow=hidden;fillColor=none;top=0;left=0;bottom=0;right=0;pointerEvents=1;fontSize=16;" vertex="1" parent="FoYIN4kyer_GURNDrp6f-12">
          <mxGeometry x="120" width="60" height="20" as="geometry">
            <mxRectangle width="60" height="20" as="alternateBounds" />
          </mxGeometry>
        </mxCell>
        <mxCell id="FoYIN4kyer_GURNDrp6f-25" value="" style="shape=tableRow;horizontal=0;startSize=0;swimlaneHead=0;swimlaneBody=0;strokeColor=inherit;top=0;left=0;bottom=0;right=0;collapsible=0;dropTarget=0;fillColor=none;points=[[0,0.5],[1,0.5]];portConstraint=eastwest;fontSize=16;" vertex="1" parent="FoYIN4kyer_GURNDrp6f-3">
          <mxGeometry y="60" width="180" height="20" as="geometry" />
        </mxCell>
        <mxCell id="FoYIN4kyer_GURNDrp6f-26" value="" style="shape=partialRectangle;html=1;whiteSpace=wrap;connectable=0;strokeColor=inherit;overflow=hidden;fillColor=none;top=0;left=0;bottom=0;right=0;pointerEvents=1;fontSize=16;" vertex="1" parent="FoYIN4kyer_GURNDrp6f-25">
          <mxGeometry width="60" height="20" as="geometry">
            <mxRectangle width="60" height="20" as="alternateBounds" />
          </mxGeometry>
        </mxCell>
        <mxCell id="FoYIN4kyer_GURNDrp6f-27" value="" style="shape=partialRectangle;html=1;whiteSpace=wrap;connectable=0;strokeColor=inherit;overflow=hidden;fillColor=none;top=0;left=0;bottom=0;right=0;pointerEvents=1;fontSize=16;" vertex="1" parent="FoYIN4kyer_GURNDrp6f-25">
          <mxGeometry x="60" width="60" height="20" as="geometry">
            <mxRectangle width="60" height="20" as="alternateBounds" />
          </mxGeometry>
        </mxCell>
        <mxCell id="FoYIN4kyer_GURNDrp6f-28" value="" style="shape=partialRectangle;html=1;whiteSpace=wrap;connectable=0;strokeColor=inherit;overflow=hidden;fillColor=none;top=0;left=0;bottom=0;right=0;pointerEvents=1;fontSize=16;" vertex="1" parent="FoYIN4kyer_GURNDrp6f-25">
          <mxGeometry x="120" width="60" height="20" as="geometry">
            <mxRectangle width="60" height="20" as="alternateBounds" />
          </mxGeometry>
        </mxCell>
        <mxCell id="FoYIN4kyer_GURNDrp6f-21" value="" style="shape=tableRow;horizontal=0;startSize=0;swimlaneHead=0;swimlaneBody=0;strokeColor=inherit;top=0;left=0;bottom=0;right=0;collapsible=0;dropTarget=0;fillColor=none;points=[[0,0.5],[1,0.5]];portConstraint=eastwest;fontSize=16;" vertex="1" parent="FoYIN4kyer_GURNDrp6f-3">
          <mxGeometry y="80" width="180" height="20" as="geometry" />
        </mxCell>
        <mxCell id="FoYIN4kyer_GURNDrp6f-22" value="" style="shape=partialRectangle;html=1;whiteSpace=wrap;connectable=0;strokeColor=inherit;overflow=hidden;fillColor=none;top=0;left=0;bottom=0;right=0;pointerEvents=1;fontSize=16;" vertex="1" parent="FoYIN4kyer_GURNDrp6f-21">
          <mxGeometry width="60" height="20" as="geometry">
            <mxRectangle width="60" height="20" as="alternateBounds" />
          </mxGeometry>
        </mxCell>
        <mxCell id="FoYIN4kyer_GURNDrp6f-23" value="" style="shape=partialRectangle;html=1;whiteSpace=wrap;connectable=0;strokeColor=inherit;overflow=hidden;fillColor=none;top=0;left=0;bottom=0;right=0;pointerEvents=1;fontSize=16;" vertex="1" parent="FoYIN4kyer_GURNDrp6f-21">
          <mxGeometry x="60" width="60" height="20" as="geometry">
            <mxRectangle width="60" height="20" as="alternateBounds" />
          </mxGeometry>
        </mxCell>
        <mxCell id="FoYIN4kyer_GURNDrp6f-24" value="" style="shape=partialRectangle;html=1;whiteSpace=wrap;connectable=0;strokeColor=inherit;overflow=hidden;fillColor=none;top=0;left=0;bottom=0;right=0;pointerEvents=1;fontSize=16;" vertex="1" parent="FoYIN4kyer_GURNDrp6f-21">
          <mxGeometry x="120" width="60" height="20" as="geometry">
            <mxRectangle width="60" height="20" as="alternateBounds" />
          </mxGeometry>
        </mxCell>
        <mxCell id="FoYIN4kyer_GURNDrp6f-30" value="" style="shape=tableRow;horizontal=0;startSize=0;swimlaneHead=0;swimlaneBody=0;strokeColor=inherit;top=0;left=0;bottom=0;right=0;collapsible=0;dropTarget=0;fillColor=none;points=[[0,0.5],[1,0.5]];portConstraint=eastwest;fontSize=16;" vertex="1" parent="FoYIN4kyer_GURNDrp6f-3">
          <mxGeometry y="100" width="180" height="20" as="geometry" />
        </mxCell>
        <mxCell id="FoYIN4kyer_GURNDrp6f-31" value="" style="shape=partialRectangle;html=1;whiteSpace=wrap;connectable=0;strokeColor=inherit;overflow=hidden;fillColor=none;top=0;left=0;bottom=0;right=0;pointerEvents=1;fontSize=16;" vertex="1" parent="FoYIN4kyer_GURNDrp6f-30">
          <mxGeometry width="60" height="20" as="geometry">
            <mxRectangle width="60" height="20" as="alternateBounds" />
          </mxGeometry>
        </mxCell>
        <mxCell id="FoYIN4kyer_GURNDrp6f-32" value="" style="shape=partialRectangle;html=1;whiteSpace=wrap;connectable=0;strokeColor=inherit;overflow=hidden;fillColor=none;top=0;left=0;bottom=0;right=0;pointerEvents=1;fontSize=16;" vertex="1" parent="FoYIN4kyer_GURNDrp6f-30">
          <mxGeometry x="60" width="60" height="20" as="geometry">
            <mxRectangle width="60" height="20" as="alternateBounds" />
          </mxGeometry>
        </mxCell>
        <mxCell id="FoYIN4kyer_GURNDrp6f-33" value="" style="shape=partialRectangle;html=1;whiteSpace=wrap;connectable=0;strokeColor=inherit;overflow=hidden;fillColor=none;top=0;left=0;bottom=0;right=0;pointerEvents=1;fontSize=16;" vertex="1" parent="FoYIN4kyer_GURNDrp6f-30">
          <mxGeometry x="120" width="60" height="20" as="geometry">
            <mxRectangle width="60" height="20" as="alternateBounds" />
          </mxGeometry>
        </mxCell>
        <mxCell id="FoYIN4kyer_GURNDrp6f-34" value="" style="shape=tableRow;horizontal=0;startSize=0;swimlaneHead=0;swimlaneBody=0;strokeColor=inherit;top=0;left=0;bottom=0;right=0;collapsible=0;dropTarget=0;fillColor=none;points=[[0,0.5],[1,0.5]];portConstraint=eastwest;fontSize=16;" vertex="1" parent="FoYIN4kyer_GURNDrp6f-3">
          <mxGeometry y="120" width="180" height="20" as="geometry" />
        </mxCell>
        <mxCell id="FoYIN4kyer_GURNDrp6f-35" value="" style="shape=partialRectangle;html=1;whiteSpace=wrap;connectable=0;strokeColor=inherit;overflow=hidden;fillColor=none;top=0;left=0;bottom=0;right=0;pointerEvents=1;fontSize=16;" vertex="1" parent="FoYIN4kyer_GURNDrp6f-34">
          <mxGeometry width="60" height="20" as="geometry">
            <mxRectangle width="60" height="20" as="alternateBounds" />
          </mxGeometry>
        </mxCell>
        <mxCell id="FoYIN4kyer_GURNDrp6f-36" value="" style="shape=partialRectangle;html=1;whiteSpace=wrap;connectable=0;strokeColor=inherit;overflow=hidden;fillColor=none;top=0;left=0;bottom=0;right=0;pointerEvents=1;fontSize=16;" vertex="1" parent="FoYIN4kyer_GURNDrp6f-34">
          <mxGeometry x="60" width="60" height="20" as="geometry">
            <mxRectangle width="60" height="20" as="alternateBounds" />
          </mxGeometry>
        </mxCell>
        <mxCell id="FoYIN4kyer_GURNDrp6f-37" value="" style="shape=partialRectangle;html=1;whiteSpace=wrap;connectable=0;strokeColor=inherit;overflow=hidden;fillColor=none;top=0;left=0;bottom=0;right=0;pointerEvents=1;fontSize=16;" vertex="1" parent="FoYIN4kyer_GURNDrp6f-34">
          <mxGeometry x="120" width="60" height="20" as="geometry">
            <mxRectangle width="60" height="20" as="alternateBounds" />
          </mxGeometry>
        </mxCell>
        <mxCell id="FoYIN4kyer_GURNDrp6f-38" value="" style="shape=tableRow;horizontal=0;startSize=0;swimlaneHead=0;swimlaneBody=0;strokeColor=inherit;top=0;left=0;bottom=0;right=0;collapsible=0;dropTarget=0;fillColor=none;points=[[0,0.5],[1,0.5]];portConstraint=eastwest;fontSize=16;" vertex="1" parent="FoYIN4kyer_GURNDrp6f-3">
          <mxGeometry y="140" width="180" height="20" as="geometry" />
        </mxCell>
        <mxCell id="FoYIN4kyer_GURNDrp6f-39" value="" style="shape=partialRectangle;html=1;whiteSpace=wrap;connectable=0;strokeColor=inherit;overflow=hidden;fillColor=none;top=0;left=0;bottom=0;right=0;pointerEvents=1;fontSize=16;" vertex="1" parent="FoYIN4kyer_GURNDrp6f-38">
          <mxGeometry width="60" height="20" as="geometry">
            <mxRectangle width="60" height="20" as="alternateBounds" />
          </mxGeometry>
        </mxCell>
        <mxCell id="FoYIN4kyer_GURNDrp6f-40" value="" style="shape=partialRectangle;html=1;whiteSpace=wrap;connectable=0;strokeColor=inherit;overflow=hidden;fillColor=none;top=0;left=0;bottom=0;right=0;pointerEvents=1;fontSize=16;" vertex="1" parent="FoYIN4kyer_GURNDrp6f-38">
          <mxGeometry x="60" width="60" height="20" as="geometry">
            <mxRectangle width="60" height="20" as="alternateBounds" />
          </mxGeometry>
        </mxCell>
        <mxCell id="FoYIN4kyer_GURNDrp6f-41" value="" style="shape=partialRectangle;html=1;whiteSpace=wrap;connectable=0;strokeColor=inherit;overflow=hidden;fillColor=none;top=0;left=0;bottom=0;right=0;pointerEvents=1;fontSize=16;" vertex="1" parent="FoYIN4kyer_GURNDrp6f-38">
          <mxGeometry x="120" width="60" height="20" as="geometry">
            <mxRectangle width="60" height="20" as="alternateBounds" />
          </mxGeometry>
        </mxCell>
        <mxCell id="FoYIN4kyer_GURNDrp6f-17" value="" style="shape=tableRow;horizontal=0;startSize=0;swimlaneHead=0;swimlaneBody=0;strokeColor=inherit;top=0;left=0;bottom=0;right=0;collapsible=0;dropTarget=0;fillColor=none;points=[[0,0.5],[1,0.5]];portConstraint=eastwest;fontSize=16;" vertex="1" parent="FoYIN4kyer_GURNDrp6f-3">
          <mxGeometry y="160" width="180" height="20" as="geometry" />
        </mxCell>
        <mxCell id="FoYIN4kyer_GURNDrp6f-18" value="" style="shape=partialRectangle;html=1;whiteSpace=wrap;connectable=0;strokeColor=inherit;overflow=hidden;fillColor=none;top=0;left=0;bottom=0;right=0;pointerEvents=1;fontSize=16;" vertex="1" parent="FoYIN4kyer_GURNDrp6f-17">
          <mxGeometry width="60" height="20" as="geometry">
            <mxRectangle width="60" height="20" as="alternateBounds" />
          </mxGeometry>
        </mxCell>
        <mxCell id="FoYIN4kyer_GURNDrp6f-19" value="" style="shape=partialRectangle;html=1;whiteSpace=wrap;connectable=0;strokeColor=inherit;overflow=hidden;fillColor=none;top=0;left=0;bottom=0;right=0;pointerEvents=1;fontSize=16;" vertex="1" parent="FoYIN4kyer_GURNDrp6f-17">
          <mxGeometry x="60" width="60" height="20" as="geometry">
            <mxRectangle width="60" height="20" as="alternateBounds" />
          </mxGeometry>
        </mxCell>
        <mxCell id="FoYIN4kyer_GURNDrp6f-20" value="" style="shape=partialRectangle;html=1;whiteSpace=wrap;connectable=0;strokeColor=inherit;overflow=hidden;fillColor=none;top=0;left=0;bottom=0;right=0;pointerEvents=1;fontSize=16;" vertex="1" parent="FoYIN4kyer_GURNDrp6f-17">
          <mxGeometry x="120" width="60" height="20" as="geometry">
            <mxRectangle width="60" height="20" as="alternateBounds" />
          </mxGeometry>
        </mxCell>
        <mxCell id="FoYIN4kyer_GURNDrp6f-43" value="Buscar" style="shape=ext;double=1;rounded=1;whiteSpace=wrap;html=1;" vertex="1" parent="FoYIN4kyer_GURNDrp6f-44">
          <mxGeometry x="10" width="150" height="20" as="geometry" />
        </mxCell>
        <mxCell id="FoYIN4kyer_GURNDrp6f-54" value="" style="group" vertex="1" connectable="0" parent="FoYIN4kyer_GURNDrp6f-55">
          <mxGeometry x="20.000000000000014" y="395" width="220" height="30" as="geometry" />
        </mxCell>
        <mxCell id="FoYIN4kyer_GURNDrp6f-51" value="Voltar" style="shape=ext;double=1;rounded=1;whiteSpace=wrap;html=1;" vertex="1" parent="FoYIN4kyer_GURNDrp6f-54">
          <mxGeometry width="64.16666666666666" height="30" as="geometry" />
        </mxCell>
        <mxCell id="FoYIN4kyer_GURNDrp6f-52" value="Continuar" style="shape=ext;double=1;rounded=1;whiteSpace=wrap;html=1;" vertex="1" parent="FoYIN4kyer_GURNDrp6f-54">
          <mxGeometry x="75.16666666666666" width="64.16666666666666" height="30" as="geometry" />
        </mxCell>
        <mxCell id="FoYIN4kyer_GURNDrp6f-53" value="Cdastrar" style="shape=ext;double=1;rounded=1;whiteSpace=wrap;html=1;" vertex="1" parent="FoYIN4kyer_GURNDrp6f-54">
          <mxGeometry x="155.83333333333331" width="64.16666666666666" height="30" as="geometry" />
        </mxCell>
        <mxCell id="FoYIN4kyer_GURNDrp6f-56" value="" style="group" vertex="1" connectable="0" parent="1">
          <mxGeometry x="400" y="560" width="250" height="480" as="geometry" />
        </mxCell>
        <mxCell id="FoYIN4kyer_GURNDrp6f-57" value="" style="shape=ext;double=1;rounded=1;whiteSpace=wrap;html=1;rotation=90;" vertex="1" parent="FoYIN4kyer_GURNDrp6f-56">
          <mxGeometry x="-114.99999999999999" y="115" width="480" height="250" as="geometry" />
        </mxCell>
        <mxCell id="FoYIN4kyer_GURNDrp6f-58" value="Matéria-Prima" style="ellipse;shape=doubleEllipse;whiteSpace=wrap;html=1;" vertex="1" parent="FoYIN4kyer_GURNDrp6f-56">
          <mxGeometry x="72.00000000000001" y="55" width="116" height="60" as="geometry" />
        </mxCell>
        <mxCell id="FoYIN4kyer_GURNDrp6f-59" value="" style="group" vertex="1" connectable="0" parent="FoYIN4kyer_GURNDrp6f-56">
          <mxGeometry x="40.000000000000014" y="145" width="180" height="220" as="geometry" />
        </mxCell>
        <mxCell id="FoYIN4kyer_GURNDrp6f-60" value="" style="shape=table;startSize=0;container=1;collapsible=0;childLayout=tableLayout;fontSize=16;" vertex="1" parent="FoYIN4kyer_GURNDrp6f-59">
          <mxGeometry y="40" width="180" height="180" as="geometry" />
        </mxCell>
        <mxCell id="FoYIN4kyer_GURNDrp6f-61" value="" style="shape=tableRow;horizontal=0;startSize=0;swimlaneHead=0;swimlaneBody=0;strokeColor=inherit;top=0;left=0;bottom=0;right=0;collapsible=0;dropTarget=0;fillColor=none;points=[[0,0.5],[1,0.5]];portConstraint=eastwest;fontSize=16;" vertex="1" parent="FoYIN4kyer_GURNDrp6f-60">
          <mxGeometry width="180" height="20" as="geometry" />
        </mxCell>
        <mxCell id="FoYIN4kyer_GURNDrp6f-62" value="" style="shape=partialRectangle;html=1;whiteSpace=wrap;connectable=0;strokeColor=inherit;overflow=hidden;fillColor=none;top=0;left=0;bottom=0;right=0;pointerEvents=1;fontSize=16;" vertex="1" parent="FoYIN4kyer_GURNDrp6f-61">
          <mxGeometry width="60" height="20" as="geometry">
            <mxRectangle width="60" height="20" as="alternateBounds" />
          </mxGeometry>
        </mxCell>
        <mxCell id="FoYIN4kyer_GURNDrp6f-63" value="" style="shape=partialRectangle;html=1;whiteSpace=wrap;connectable=0;strokeColor=inherit;overflow=hidden;fillColor=none;top=0;left=0;bottom=0;right=0;pointerEvents=1;fontSize=16;" vertex="1" parent="FoYIN4kyer_GURNDrp6f-61">
          <mxGeometry x="60" width="60" height="20" as="geometry">
            <mxRectangle width="60" height="20" as="alternateBounds" />
          </mxGeometry>
        </mxCell>
        <mxCell id="FoYIN4kyer_GURNDrp6f-64" value="" style="shape=partialRectangle;html=1;whiteSpace=wrap;connectable=0;strokeColor=inherit;overflow=hidden;fillColor=none;top=0;left=0;bottom=0;right=0;pointerEvents=1;fontSize=16;" vertex="1" parent="FoYIN4kyer_GURNDrp6f-61">
          <mxGeometry x="120" width="60" height="20" as="geometry">
            <mxRectangle width="60" height="20" as="alternateBounds" />
          </mxGeometry>
        </mxCell>
        <mxCell id="FoYIN4kyer_GURNDrp6f-65" value="" style="shape=tableRow;horizontal=0;startSize=0;swimlaneHead=0;swimlaneBody=0;strokeColor=inherit;top=0;left=0;bottom=0;right=0;collapsible=0;dropTarget=0;fillColor=none;points=[[0,0.5],[1,0.5]];portConstraint=eastwest;fontSize=16;" vertex="1" parent="FoYIN4kyer_GURNDrp6f-60">
          <mxGeometry y="20" width="180" height="20" as="geometry" />
        </mxCell>
        <mxCell id="FoYIN4kyer_GURNDrp6f-66" value="" style="shape=partialRectangle;html=1;whiteSpace=wrap;connectable=0;strokeColor=inherit;overflow=hidden;fillColor=none;top=0;left=0;bottom=0;right=0;pointerEvents=1;fontSize=16;" vertex="1" parent="FoYIN4kyer_GURNDrp6f-65">
          <mxGeometry width="60" height="20" as="geometry">
            <mxRectangle width="60" height="20" as="alternateBounds" />
          </mxGeometry>
        </mxCell>
        <mxCell id="FoYIN4kyer_GURNDrp6f-67" value="" style="shape=partialRectangle;html=1;whiteSpace=wrap;connectable=0;strokeColor=inherit;overflow=hidden;fillColor=none;top=0;left=0;bottom=0;right=0;pointerEvents=1;fontSize=16;" vertex="1" parent="FoYIN4kyer_GURNDrp6f-65">
          <mxGeometry x="60" width="60" height="20" as="geometry">
            <mxRectangle width="60" height="20" as="alternateBounds" />
          </mxGeometry>
        </mxCell>
        <mxCell id="FoYIN4kyer_GURNDrp6f-68" value="" style="shape=partialRectangle;html=1;whiteSpace=wrap;connectable=0;strokeColor=inherit;overflow=hidden;fillColor=none;top=0;left=0;bottom=0;right=0;pointerEvents=1;fontSize=16;" vertex="1" parent="FoYIN4kyer_GURNDrp6f-65">
          <mxGeometry x="120" width="60" height="20" as="geometry">
            <mxRectangle width="60" height="20" as="alternateBounds" />
          </mxGeometry>
        </mxCell>
        <mxCell id="FoYIN4kyer_GURNDrp6f-69" value="" style="shape=tableRow;horizontal=0;startSize=0;swimlaneHead=0;swimlaneBody=0;strokeColor=inherit;top=0;left=0;bottom=0;right=0;collapsible=0;dropTarget=0;fillColor=none;points=[[0,0.5],[1,0.5]];portConstraint=eastwest;fontSize=16;" vertex="1" parent="FoYIN4kyer_GURNDrp6f-60">
          <mxGeometry y="40" width="180" height="20" as="geometry" />
        </mxCell>
        <mxCell id="FoYIN4kyer_GURNDrp6f-70" value="" style="shape=partialRectangle;html=1;whiteSpace=wrap;connectable=0;strokeColor=inherit;overflow=hidden;fillColor=none;top=0;left=0;bottom=0;right=0;pointerEvents=1;fontSize=16;" vertex="1" parent="FoYIN4kyer_GURNDrp6f-69">
          <mxGeometry width="60" height="20" as="geometry">
            <mxRectangle width="60" height="20" as="alternateBounds" />
          </mxGeometry>
        </mxCell>
        <mxCell id="FoYIN4kyer_GURNDrp6f-71" value="" style="shape=partialRectangle;html=1;whiteSpace=wrap;connectable=0;strokeColor=inherit;overflow=hidden;fillColor=none;top=0;left=0;bottom=0;right=0;pointerEvents=1;fontSize=16;" vertex="1" parent="FoYIN4kyer_GURNDrp6f-69">
          <mxGeometry x="60" width="60" height="20" as="geometry">
            <mxRectangle width="60" height="20" as="alternateBounds" />
          </mxGeometry>
        </mxCell>
        <mxCell id="FoYIN4kyer_GURNDrp6f-72" value="" style="shape=partialRectangle;html=1;whiteSpace=wrap;connectable=0;strokeColor=inherit;overflow=hidden;fillColor=none;top=0;left=0;bottom=0;right=0;pointerEvents=1;fontSize=16;" vertex="1" parent="FoYIN4kyer_GURNDrp6f-69">
          <mxGeometry x="120" width="60" height="20" as="geometry">
            <mxRectangle width="60" height="20" as="alternateBounds" />
          </mxGeometry>
        </mxCell>
        <mxCell id="FoYIN4kyer_GURNDrp6f-73" value="" style="shape=tableRow;horizontal=0;startSize=0;swimlaneHead=0;swimlaneBody=0;strokeColor=inherit;top=0;left=0;bottom=0;right=0;collapsible=0;dropTarget=0;fillColor=none;points=[[0,0.5],[1,0.5]];portConstraint=eastwest;fontSize=16;" vertex="1" parent="FoYIN4kyer_GURNDrp6f-60">
          <mxGeometry y="60" width="180" height="20" as="geometry" />
        </mxCell>
        <mxCell id="FoYIN4kyer_GURNDrp6f-74" value="" style="shape=partialRectangle;html=1;whiteSpace=wrap;connectable=0;strokeColor=inherit;overflow=hidden;fillColor=none;top=0;left=0;bottom=0;right=0;pointerEvents=1;fontSize=16;" vertex="1" parent="FoYIN4kyer_GURNDrp6f-73">
          <mxGeometry width="60" height="20" as="geometry">
            <mxRectangle width="60" height="20" as="alternateBounds" />
          </mxGeometry>
        </mxCell>
        <mxCell id="FoYIN4kyer_GURNDrp6f-75" value="" style="shape=partialRectangle;html=1;whiteSpace=wrap;connectable=0;strokeColor=inherit;overflow=hidden;fillColor=none;top=0;left=0;bottom=0;right=0;pointerEvents=1;fontSize=16;" vertex="1" parent="FoYIN4kyer_GURNDrp6f-73">
          <mxGeometry x="60" width="60" height="20" as="geometry">
            <mxRectangle width="60" height="20" as="alternateBounds" />
          </mxGeometry>
        </mxCell>
        <mxCell id="FoYIN4kyer_GURNDrp6f-76" value="" style="shape=partialRectangle;html=1;whiteSpace=wrap;connectable=0;strokeColor=inherit;overflow=hidden;fillColor=none;top=0;left=0;bottom=0;right=0;pointerEvents=1;fontSize=16;" vertex="1" parent="FoYIN4kyer_GURNDrp6f-73">
          <mxGeometry x="120" width="60" height="20" as="geometry">
            <mxRectangle width="60" height="20" as="alternateBounds" />
          </mxGeometry>
        </mxCell>
        <mxCell id="FoYIN4kyer_GURNDrp6f-77" value="" style="shape=tableRow;horizontal=0;startSize=0;swimlaneHead=0;swimlaneBody=0;strokeColor=inherit;top=0;left=0;bottom=0;right=0;collapsible=0;dropTarget=0;fillColor=none;points=[[0,0.5],[1,0.5]];portConstraint=eastwest;fontSize=16;" vertex="1" parent="FoYIN4kyer_GURNDrp6f-60">
          <mxGeometry y="80" width="180" height="20" as="geometry" />
        </mxCell>
        <mxCell id="FoYIN4kyer_GURNDrp6f-78" value="" style="shape=partialRectangle;html=1;whiteSpace=wrap;connectable=0;strokeColor=inherit;overflow=hidden;fillColor=none;top=0;left=0;bottom=0;right=0;pointerEvents=1;fontSize=16;" vertex="1" parent="FoYIN4kyer_GURNDrp6f-77">
          <mxGeometry width="60" height="20" as="geometry">
            <mxRectangle width="60" height="20" as="alternateBounds" />
          </mxGeometry>
        </mxCell>
        <mxCell id="FoYIN4kyer_GURNDrp6f-79" value="" style="shape=partialRectangle;html=1;whiteSpace=wrap;connectable=0;strokeColor=inherit;overflow=hidden;fillColor=none;top=0;left=0;bottom=0;right=0;pointerEvents=1;fontSize=16;" vertex="1" parent="FoYIN4kyer_GURNDrp6f-77">
          <mxGeometry x="60" width="60" height="20" as="geometry">
            <mxRectangle width="60" height="20" as="alternateBounds" />
          </mxGeometry>
        </mxCell>
        <mxCell id="FoYIN4kyer_GURNDrp6f-80" value="" style="shape=partialRectangle;html=1;whiteSpace=wrap;connectable=0;strokeColor=inherit;overflow=hidden;fillColor=none;top=0;left=0;bottom=0;right=0;pointerEvents=1;fontSize=16;" vertex="1" parent="FoYIN4kyer_GURNDrp6f-77">
          <mxGeometry x="120" width="60" height="20" as="geometry">
            <mxRectangle width="60" height="20" as="alternateBounds" />
          </mxGeometry>
        </mxCell>
        <mxCell id="FoYIN4kyer_GURNDrp6f-81" value="" style="shape=tableRow;horizontal=0;startSize=0;swimlaneHead=0;swimlaneBody=0;strokeColor=inherit;top=0;left=0;bottom=0;right=0;collapsible=0;dropTarget=0;fillColor=none;points=[[0,0.5],[1,0.5]];portConstraint=eastwest;fontSize=16;" vertex="1" parent="FoYIN4kyer_GURNDrp6f-60">
          <mxGeometry y="100" width="180" height="20" as="geometry" />
        </mxCell>
        <mxCell id="FoYIN4kyer_GURNDrp6f-82" value="" style="shape=partialRectangle;html=1;whiteSpace=wrap;connectable=0;strokeColor=inherit;overflow=hidden;fillColor=none;top=0;left=0;bottom=0;right=0;pointerEvents=1;fontSize=16;" vertex="1" parent="FoYIN4kyer_GURNDrp6f-81">
          <mxGeometry width="60" height="20" as="geometry">
            <mxRectangle width="60" height="20" as="alternateBounds" />
          </mxGeometry>
        </mxCell>
        <mxCell id="FoYIN4kyer_GURNDrp6f-83" value="" style="shape=partialRectangle;html=1;whiteSpace=wrap;connectable=0;strokeColor=inherit;overflow=hidden;fillColor=none;top=0;left=0;bottom=0;right=0;pointerEvents=1;fontSize=16;" vertex="1" parent="FoYIN4kyer_GURNDrp6f-81">
          <mxGeometry x="60" width="60" height="20" as="geometry">
            <mxRectangle width="60" height="20" as="alternateBounds" />
          </mxGeometry>
        </mxCell>
        <mxCell id="FoYIN4kyer_GURNDrp6f-84" value="" style="shape=partialRectangle;html=1;whiteSpace=wrap;connectable=0;strokeColor=inherit;overflow=hidden;fillColor=none;top=0;left=0;bottom=0;right=0;pointerEvents=1;fontSize=16;" vertex="1" parent="FoYIN4kyer_GURNDrp6f-81">
          <mxGeometry x="120" width="60" height="20" as="geometry">
            <mxRectangle width="60" height="20" as="alternateBounds" />
          </mxGeometry>
        </mxCell>
        <mxCell id="FoYIN4kyer_GURNDrp6f-85" value="" style="shape=tableRow;horizontal=0;startSize=0;swimlaneHead=0;swimlaneBody=0;strokeColor=inherit;top=0;left=0;bottom=0;right=0;collapsible=0;dropTarget=0;fillColor=none;points=[[0,0.5],[1,0.5]];portConstraint=eastwest;fontSize=16;" vertex="1" parent="FoYIN4kyer_GURNDrp6f-60">
          <mxGeometry y="120" width="180" height="20" as="geometry" />
        </mxCell>
        <mxCell id="FoYIN4kyer_GURNDrp6f-86" value="" style="shape=partialRectangle;html=1;whiteSpace=wrap;connectable=0;strokeColor=inherit;overflow=hidden;fillColor=none;top=0;left=0;bottom=0;right=0;pointerEvents=1;fontSize=16;" vertex="1" parent="FoYIN4kyer_GURNDrp6f-85">
          <mxGeometry width="60" height="20" as="geometry">
            <mxRectangle width="60" height="20" as="alternateBounds" />
          </mxGeometry>
        </mxCell>
        <mxCell id="FoYIN4kyer_GURNDrp6f-87" value="" style="shape=partialRectangle;html=1;whiteSpace=wrap;connectable=0;strokeColor=inherit;overflow=hidden;fillColor=none;top=0;left=0;bottom=0;right=0;pointerEvents=1;fontSize=16;" vertex="1" parent="FoYIN4kyer_GURNDrp6f-85">
          <mxGeometry x="60" width="60" height="20" as="geometry">
            <mxRectangle width="60" height="20" as="alternateBounds" />
          </mxGeometry>
        </mxCell>
        <mxCell id="FoYIN4kyer_GURNDrp6f-88" value="" style="shape=partialRectangle;html=1;whiteSpace=wrap;connectable=0;strokeColor=inherit;overflow=hidden;fillColor=none;top=0;left=0;bottom=0;right=0;pointerEvents=1;fontSize=16;" vertex="1" parent="FoYIN4kyer_GURNDrp6f-85">
          <mxGeometry x="120" width="60" height="20" as="geometry">
            <mxRectangle width="60" height="20" as="alternateBounds" />
          </mxGeometry>
        </mxCell>
        <mxCell id="FoYIN4kyer_GURNDrp6f-89" value="" style="shape=tableRow;horizontal=0;startSize=0;swimlaneHead=0;swimlaneBody=0;strokeColor=inherit;top=0;left=0;bottom=0;right=0;collapsible=0;dropTarget=0;fillColor=none;points=[[0,0.5],[1,0.5]];portConstraint=eastwest;fontSize=16;" vertex="1" parent="FoYIN4kyer_GURNDrp6f-60">
          <mxGeometry y="140" width="180" height="20" as="geometry" />
        </mxCell>
        <mxCell id="FoYIN4kyer_GURNDrp6f-90" value="" style="shape=partialRectangle;html=1;whiteSpace=wrap;connectable=0;strokeColor=inherit;overflow=hidden;fillColor=none;top=0;left=0;bottom=0;right=0;pointerEvents=1;fontSize=16;" vertex="1" parent="FoYIN4kyer_GURNDrp6f-89">
          <mxGeometry width="60" height="20" as="geometry">
            <mxRectangle width="60" height="20" as="alternateBounds" />
          </mxGeometry>
        </mxCell>
        <mxCell id="FoYIN4kyer_GURNDrp6f-91" value="" style="shape=partialRectangle;html=1;whiteSpace=wrap;connectable=0;strokeColor=inherit;overflow=hidden;fillColor=none;top=0;left=0;bottom=0;right=0;pointerEvents=1;fontSize=16;" vertex="1" parent="FoYIN4kyer_GURNDrp6f-89">
          <mxGeometry x="60" width="60" height="20" as="geometry">
            <mxRectangle width="60" height="20" as="alternateBounds" />
          </mxGeometry>
        </mxCell>
        <mxCell id="FoYIN4kyer_GURNDrp6f-92" value="" style="shape=partialRectangle;html=1;whiteSpace=wrap;connectable=0;strokeColor=inherit;overflow=hidden;fillColor=none;top=0;left=0;bottom=0;right=0;pointerEvents=1;fontSize=16;" vertex="1" parent="FoYIN4kyer_GURNDrp6f-89">
          <mxGeometry x="120" width="60" height="20" as="geometry">
            <mxRectangle width="60" height="20" as="alternateBounds" />
          </mxGeometry>
        </mxCell>
        <mxCell id="FoYIN4kyer_GURNDrp6f-93" value="" style="shape=tableRow;horizontal=0;startSize=0;swimlaneHead=0;swimlaneBody=0;strokeColor=inherit;top=0;left=0;bottom=0;right=0;collapsible=0;dropTarget=0;fillColor=none;points=[[0,0.5],[1,0.5]];portConstraint=eastwest;fontSize=16;" vertex="1" parent="FoYIN4kyer_GURNDrp6f-60">
          <mxGeometry y="160" width="180" height="20" as="geometry" />
        </mxCell>
        <mxCell id="FoYIN4kyer_GURNDrp6f-94" value="" style="shape=partialRectangle;html=1;whiteSpace=wrap;connectable=0;strokeColor=inherit;overflow=hidden;fillColor=none;top=0;left=0;bottom=0;right=0;pointerEvents=1;fontSize=16;" vertex="1" parent="FoYIN4kyer_GURNDrp6f-93">
          <mxGeometry width="60" height="20" as="geometry">
            <mxRectangle width="60" height="20" as="alternateBounds" />
          </mxGeometry>
        </mxCell>
        <mxCell id="FoYIN4kyer_GURNDrp6f-95" value="" style="shape=partialRectangle;html=1;whiteSpace=wrap;connectable=0;strokeColor=inherit;overflow=hidden;fillColor=none;top=0;left=0;bottom=0;right=0;pointerEvents=1;fontSize=16;" vertex="1" parent="FoYIN4kyer_GURNDrp6f-93">
          <mxGeometry x="60" width="60" height="20" as="geometry">
            <mxRectangle width="60" height="20" as="alternateBounds" />
          </mxGeometry>
        </mxCell>
        <mxCell id="FoYIN4kyer_GURNDrp6f-96" value="" style="shape=partialRectangle;html=1;whiteSpace=wrap;connectable=0;strokeColor=inherit;overflow=hidden;fillColor=none;top=0;left=0;bottom=0;right=0;pointerEvents=1;fontSize=16;" vertex="1" parent="FoYIN4kyer_GURNDrp6f-93">
          <mxGeometry x="120" width="60" height="20" as="geometry">
            <mxRectangle width="60" height="20" as="alternateBounds" />
          </mxGeometry>
        </mxCell>
        <mxCell id="FoYIN4kyer_GURNDrp6f-97" value="Buscar" style="shape=ext;double=1;rounded=1;whiteSpace=wrap;html=1;" vertex="1" parent="FoYIN4kyer_GURNDrp6f-59">
          <mxGeometry x="10" width="150" height="20" as="geometry" />
        </mxCell>
        <mxCell id="FoYIN4kyer_GURNDrp6f-98" value="" style="group" vertex="1" connectable="0" parent="FoYIN4kyer_GURNDrp6f-56">
          <mxGeometry x="20.000000000000014" y="395" width="220" height="30" as="geometry" />
        </mxCell>
        <mxCell id="FoYIN4kyer_GURNDrp6f-99" value="Voltar" style="shape=ext;double=1;rounded=1;whiteSpace=wrap;html=1;" vertex="1" parent="FoYIN4kyer_GURNDrp6f-98">
          <mxGeometry width="64.16666666666666" height="30" as="geometry" />
        </mxCell>
        <mxCell id="FoYIN4kyer_GURNDrp6f-100" value="Continuar" style="shape=ext;double=1;rounded=1;whiteSpace=wrap;html=1;" vertex="1" parent="FoYIN4kyer_GURNDrp6f-98">
          <mxGeometry x="75.16666666666666" width="64.16666666666666" height="30" as="geometry" />
        </mxCell>
        <mxCell id="FoYIN4kyer_GURNDrp6f-101" value="Cdastrar" style="shape=ext;double=1;rounded=1;whiteSpace=wrap;html=1;" vertex="1" parent="FoYIN4kyer_GURNDrp6f-98">
          <mxGeometry x="155.83333333333331" width="64.16666666666666" height="30" as="geometry" />
        </mxCell>
        <mxCell id="FoYIN4kyer_GURNDrp6f-103" value="" style="group" vertex="1" connectable="0" parent="1">
          <mxGeometry x="40" y="1200" width="250" height="480" as="geometry" />
        </mxCell>
        <mxCell id="FoYIN4kyer_GURNDrp6f-104" value="" style="shape=ext;double=1;rounded=1;whiteSpace=wrap;html=1;rotation=90;" vertex="1" parent="FoYIN4kyer_GURNDrp6f-103">
          <mxGeometry x="-114.99999999999999" y="115" width="480" height="250" as="geometry" />
        </mxCell>
        <mxCell id="FoYIN4kyer_GURNDrp6f-105" value="Matéria-Prima" style="ellipse;shape=doubleEllipse;whiteSpace=wrap;html=1;" vertex="1" parent="FoYIN4kyer_GURNDrp6f-103">
          <mxGeometry x="72.00000000000001" y="55" width="116" height="60" as="geometry" />
        </mxCell>
        <mxCell id="FoYIN4kyer_GURNDrp6f-106" value="" style="group" vertex="1" connectable="0" parent="FoYIN4kyer_GURNDrp6f-103">
          <mxGeometry x="40.000000000000014" y="145" width="185" height="220" as="geometry" />
        </mxCell>
        <mxCell id="FoYIN4kyer_GURNDrp6f-107" value="" style="shape=table;startSize=0;container=1;collapsible=0;childLayout=tableLayout;fontSize=16;" vertex="1" parent="FoYIN4kyer_GURNDrp6f-106">
          <mxGeometry y="40" width="180" height="180" as="geometry" />
        </mxCell>
        <mxCell id="FoYIN4kyer_GURNDrp6f-108" value="" style="shape=tableRow;horizontal=0;startSize=0;swimlaneHead=0;swimlaneBody=0;strokeColor=inherit;top=0;left=0;bottom=0;right=0;collapsible=0;dropTarget=0;fillColor=none;points=[[0,0.5],[1,0.5]];portConstraint=eastwest;fontSize=16;" vertex="1" parent="FoYIN4kyer_GURNDrp6f-107">
          <mxGeometry width="180" height="20" as="geometry" />
        </mxCell>
        <mxCell id="FoYIN4kyer_GURNDrp6f-109" value="" style="shape=partialRectangle;html=1;whiteSpace=wrap;connectable=0;strokeColor=inherit;overflow=hidden;fillColor=none;top=0;left=0;bottom=0;right=0;pointerEvents=1;fontSize=16;" vertex="1" parent="FoYIN4kyer_GURNDrp6f-108">
          <mxGeometry width="60" height="20" as="geometry">
            <mxRectangle width="60" height="20" as="alternateBounds" />
          </mxGeometry>
        </mxCell>
        <mxCell id="FoYIN4kyer_GURNDrp6f-110" value="" style="shape=partialRectangle;html=1;whiteSpace=wrap;connectable=0;strokeColor=inherit;overflow=hidden;fillColor=none;top=0;left=0;bottom=0;right=0;pointerEvents=1;fontSize=16;" vertex="1" parent="FoYIN4kyer_GURNDrp6f-108">
          <mxGeometry x="60" width="60" height="20" as="geometry">
            <mxRectangle width="60" height="20" as="alternateBounds" />
          </mxGeometry>
        </mxCell>
        <mxCell id="FoYIN4kyer_GURNDrp6f-111" value="" style="shape=partialRectangle;html=1;whiteSpace=wrap;connectable=0;strokeColor=inherit;overflow=hidden;fillColor=none;top=0;left=0;bottom=0;right=0;pointerEvents=1;fontSize=16;" vertex="1" parent="FoYIN4kyer_GURNDrp6f-108">
          <mxGeometry x="120" width="60" height="20" as="geometry">
            <mxRectangle width="60" height="20" as="alternateBounds" />
          </mxGeometry>
        </mxCell>
        <mxCell id="FoYIN4kyer_GURNDrp6f-112" value="" style="shape=tableRow;horizontal=0;startSize=0;swimlaneHead=0;swimlaneBody=0;strokeColor=inherit;top=0;left=0;bottom=0;right=0;collapsible=0;dropTarget=0;fillColor=none;points=[[0,0.5],[1,0.5]];portConstraint=eastwest;fontSize=16;" vertex="1" parent="FoYIN4kyer_GURNDrp6f-107">
          <mxGeometry y="20" width="180" height="20" as="geometry" />
        </mxCell>
        <mxCell id="FoYIN4kyer_GURNDrp6f-113" value="" style="shape=partialRectangle;html=1;whiteSpace=wrap;connectable=0;strokeColor=inherit;overflow=hidden;fillColor=none;top=0;left=0;bottom=0;right=0;pointerEvents=1;fontSize=16;" vertex="1" parent="FoYIN4kyer_GURNDrp6f-112">
          <mxGeometry width="60" height="20" as="geometry">
            <mxRectangle width="60" height="20" as="alternateBounds" />
          </mxGeometry>
        </mxCell>
        <mxCell id="FoYIN4kyer_GURNDrp6f-114" value="" style="shape=partialRectangle;html=1;whiteSpace=wrap;connectable=0;strokeColor=inherit;overflow=hidden;fillColor=none;top=0;left=0;bottom=0;right=0;pointerEvents=1;fontSize=16;" vertex="1" parent="FoYIN4kyer_GURNDrp6f-112">
          <mxGeometry x="60" width="60" height="20" as="geometry">
            <mxRectangle width="60" height="20" as="alternateBounds" />
          </mxGeometry>
        </mxCell>
        <mxCell id="FoYIN4kyer_GURNDrp6f-115" value="" style="shape=partialRectangle;html=1;whiteSpace=wrap;connectable=0;strokeColor=inherit;overflow=hidden;fillColor=none;top=0;left=0;bottom=0;right=0;pointerEvents=1;fontSize=16;" vertex="1" parent="FoYIN4kyer_GURNDrp6f-112">
          <mxGeometry x="120" width="60" height="20" as="geometry">
            <mxRectangle width="60" height="20" as="alternateBounds" />
          </mxGeometry>
        </mxCell>
        <mxCell id="FoYIN4kyer_GURNDrp6f-116" value="" style="shape=tableRow;horizontal=0;startSize=0;swimlaneHead=0;swimlaneBody=0;strokeColor=inherit;top=0;left=0;bottom=0;right=0;collapsible=0;dropTarget=0;fillColor=none;points=[[0,0.5],[1,0.5]];portConstraint=eastwest;fontSize=16;" vertex="1" parent="FoYIN4kyer_GURNDrp6f-107">
          <mxGeometry y="40" width="180" height="20" as="geometry" />
        </mxCell>
        <mxCell id="FoYIN4kyer_GURNDrp6f-117" value="" style="shape=partialRectangle;html=1;whiteSpace=wrap;connectable=0;strokeColor=inherit;overflow=hidden;fillColor=none;top=0;left=0;bottom=0;right=0;pointerEvents=1;fontSize=16;" vertex="1" parent="FoYIN4kyer_GURNDrp6f-116">
          <mxGeometry width="60" height="20" as="geometry">
            <mxRectangle width="60" height="20" as="alternateBounds" />
          </mxGeometry>
        </mxCell>
        <mxCell id="FoYIN4kyer_GURNDrp6f-118" value="" style="shape=partialRectangle;html=1;whiteSpace=wrap;connectable=0;strokeColor=inherit;overflow=hidden;fillColor=none;top=0;left=0;bottom=0;right=0;pointerEvents=1;fontSize=16;" vertex="1" parent="FoYIN4kyer_GURNDrp6f-116">
          <mxGeometry x="60" width="60" height="20" as="geometry">
            <mxRectangle width="60" height="20" as="alternateBounds" />
          </mxGeometry>
        </mxCell>
        <mxCell id="FoYIN4kyer_GURNDrp6f-119" value="" style="shape=partialRectangle;html=1;whiteSpace=wrap;connectable=0;strokeColor=inherit;overflow=hidden;fillColor=none;top=0;left=0;bottom=0;right=0;pointerEvents=1;fontSize=16;" vertex="1" parent="FoYIN4kyer_GURNDrp6f-116">
          <mxGeometry x="120" width="60" height="20" as="geometry">
            <mxRectangle width="60" height="20" as="alternateBounds" />
          </mxGeometry>
        </mxCell>
        <mxCell id="FoYIN4kyer_GURNDrp6f-120" value="" style="shape=tableRow;horizontal=0;startSize=0;swimlaneHead=0;swimlaneBody=0;strokeColor=inherit;top=0;left=0;bottom=0;right=0;collapsible=0;dropTarget=0;fillColor=none;points=[[0,0.5],[1,0.5]];portConstraint=eastwest;fontSize=16;" vertex="1" parent="FoYIN4kyer_GURNDrp6f-107">
          <mxGeometry y="60" width="180" height="20" as="geometry" />
        </mxCell>
        <mxCell id="FoYIN4kyer_GURNDrp6f-121" value="" style="shape=partialRectangle;html=1;whiteSpace=wrap;connectable=0;strokeColor=inherit;overflow=hidden;fillColor=none;top=0;left=0;bottom=0;right=0;pointerEvents=1;fontSize=16;" vertex="1" parent="FoYIN4kyer_GURNDrp6f-120">
          <mxGeometry width="60" height="20" as="geometry">
            <mxRectangle width="60" height="20" as="alternateBounds" />
          </mxGeometry>
        </mxCell>
        <mxCell id="FoYIN4kyer_GURNDrp6f-122" value="" style="shape=partialRectangle;html=1;whiteSpace=wrap;connectable=0;strokeColor=inherit;overflow=hidden;fillColor=none;top=0;left=0;bottom=0;right=0;pointerEvents=1;fontSize=16;" vertex="1" parent="FoYIN4kyer_GURNDrp6f-120">
          <mxGeometry x="60" width="60" height="20" as="geometry">
            <mxRectangle width="60" height="20" as="alternateBounds" />
          </mxGeometry>
        </mxCell>
        <mxCell id="FoYIN4kyer_GURNDrp6f-123" value="" style="shape=partialRectangle;html=1;whiteSpace=wrap;connectable=0;strokeColor=inherit;overflow=hidden;fillColor=none;top=0;left=0;bottom=0;right=0;pointerEvents=1;fontSize=16;" vertex="1" parent="FoYIN4kyer_GURNDrp6f-120">
          <mxGeometry x="120" width="60" height="20" as="geometry">
            <mxRectangle width="60" height="20" as="alternateBounds" />
          </mxGeometry>
        </mxCell>
        <mxCell id="FoYIN4kyer_GURNDrp6f-124" value="" style="shape=tableRow;horizontal=0;startSize=0;swimlaneHead=0;swimlaneBody=0;strokeColor=inherit;top=0;left=0;bottom=0;right=0;collapsible=0;dropTarget=0;fillColor=none;points=[[0,0.5],[1,0.5]];portConstraint=eastwest;fontSize=16;" vertex="1" parent="FoYIN4kyer_GURNDrp6f-107">
          <mxGeometry y="80" width="180" height="20" as="geometry" />
        </mxCell>
        <mxCell id="FoYIN4kyer_GURNDrp6f-125" value="" style="shape=partialRectangle;html=1;whiteSpace=wrap;connectable=0;strokeColor=inherit;overflow=hidden;fillColor=none;top=0;left=0;bottom=0;right=0;pointerEvents=1;fontSize=16;" vertex="1" parent="FoYIN4kyer_GURNDrp6f-124">
          <mxGeometry width="60" height="20" as="geometry">
            <mxRectangle width="60" height="20" as="alternateBounds" />
          </mxGeometry>
        </mxCell>
        <mxCell id="FoYIN4kyer_GURNDrp6f-126" value="" style="shape=partialRectangle;html=1;whiteSpace=wrap;connectable=0;strokeColor=inherit;overflow=hidden;fillColor=none;top=0;left=0;bottom=0;right=0;pointerEvents=1;fontSize=16;" vertex="1" parent="FoYIN4kyer_GURNDrp6f-124">
          <mxGeometry x="60" width="60" height="20" as="geometry">
            <mxRectangle width="60" height="20" as="alternateBounds" />
          </mxGeometry>
        </mxCell>
        <mxCell id="FoYIN4kyer_GURNDrp6f-127" value="" style="shape=partialRectangle;html=1;whiteSpace=wrap;connectable=0;strokeColor=inherit;overflow=hidden;fillColor=none;top=0;left=0;bottom=0;right=0;pointerEvents=1;fontSize=16;" vertex="1" parent="FoYIN4kyer_GURNDrp6f-124">
          <mxGeometry x="120" width="60" height="20" as="geometry">
            <mxRectangle width="60" height="20" as="alternateBounds" />
          </mxGeometry>
        </mxCell>
        <mxCell id="FoYIN4kyer_GURNDrp6f-128" value="" style="shape=tableRow;horizontal=0;startSize=0;swimlaneHead=0;swimlaneBody=0;strokeColor=inherit;top=0;left=0;bottom=0;right=0;collapsible=0;dropTarget=0;fillColor=none;points=[[0,0.5],[1,0.5]];portConstraint=eastwest;fontSize=16;" vertex="1" parent="FoYIN4kyer_GURNDrp6f-107">
          <mxGeometry y="100" width="180" height="20" as="geometry" />
        </mxCell>
        <mxCell id="FoYIN4kyer_GURNDrp6f-129" value="" style="shape=partialRectangle;html=1;whiteSpace=wrap;connectable=0;strokeColor=inherit;overflow=hidden;fillColor=none;top=0;left=0;bottom=0;right=0;pointerEvents=1;fontSize=16;" vertex="1" parent="FoYIN4kyer_GURNDrp6f-128">
          <mxGeometry width="60" height="20" as="geometry">
            <mxRectangle width="60" height="20" as="alternateBounds" />
          </mxGeometry>
        </mxCell>
        <mxCell id="FoYIN4kyer_GURNDrp6f-130" value="" style="shape=partialRectangle;html=1;whiteSpace=wrap;connectable=0;strokeColor=inherit;overflow=hidden;fillColor=none;top=0;left=0;bottom=0;right=0;pointerEvents=1;fontSize=16;" vertex="1" parent="FoYIN4kyer_GURNDrp6f-128">
          <mxGeometry x="60" width="60" height="20" as="geometry">
            <mxRectangle width="60" height="20" as="alternateBounds" />
          </mxGeometry>
        </mxCell>
        <mxCell id="FoYIN4kyer_GURNDrp6f-131" value="" style="shape=partialRectangle;html=1;whiteSpace=wrap;connectable=0;strokeColor=inherit;overflow=hidden;fillColor=none;top=0;left=0;bottom=0;right=0;pointerEvents=1;fontSize=16;" vertex="1" parent="FoYIN4kyer_GURNDrp6f-128">
          <mxGeometry x="120" width="60" height="20" as="geometry">
            <mxRectangle width="60" height="20" as="alternateBounds" />
          </mxGeometry>
        </mxCell>
        <mxCell id="FoYIN4kyer_GURNDrp6f-132" value="" style="shape=tableRow;horizontal=0;startSize=0;swimlaneHead=0;swimlaneBody=0;strokeColor=inherit;top=0;left=0;bottom=0;right=0;collapsible=0;dropTarget=0;fillColor=none;points=[[0,0.5],[1,0.5]];portConstraint=eastwest;fontSize=16;" vertex="1" parent="FoYIN4kyer_GURNDrp6f-107">
          <mxGeometry y="120" width="180" height="20" as="geometry" />
        </mxCell>
        <mxCell id="FoYIN4kyer_GURNDrp6f-133" value="" style="shape=partialRectangle;html=1;whiteSpace=wrap;connectable=0;strokeColor=inherit;overflow=hidden;fillColor=none;top=0;left=0;bottom=0;right=0;pointerEvents=1;fontSize=16;" vertex="1" parent="FoYIN4kyer_GURNDrp6f-132">
          <mxGeometry width="60" height="20" as="geometry">
            <mxRectangle width="60" height="20" as="alternateBounds" />
          </mxGeometry>
        </mxCell>
        <mxCell id="FoYIN4kyer_GURNDrp6f-134" value="" style="shape=partialRectangle;html=1;whiteSpace=wrap;connectable=0;strokeColor=inherit;overflow=hidden;fillColor=none;top=0;left=0;bottom=0;right=0;pointerEvents=1;fontSize=16;" vertex="1" parent="FoYIN4kyer_GURNDrp6f-132">
          <mxGeometry x="60" width="60" height="20" as="geometry">
            <mxRectangle width="60" height="20" as="alternateBounds" />
          </mxGeometry>
        </mxCell>
        <mxCell id="FoYIN4kyer_GURNDrp6f-135" value="" style="shape=partialRectangle;html=1;whiteSpace=wrap;connectable=0;strokeColor=inherit;overflow=hidden;fillColor=none;top=0;left=0;bottom=0;right=0;pointerEvents=1;fontSize=16;" vertex="1" parent="FoYIN4kyer_GURNDrp6f-132">
          <mxGeometry x="120" width="60" height="20" as="geometry">
            <mxRectangle width="60" height="20" as="alternateBounds" />
          </mxGeometry>
        </mxCell>
        <mxCell id="FoYIN4kyer_GURNDrp6f-136" value="" style="shape=tableRow;horizontal=0;startSize=0;swimlaneHead=0;swimlaneBody=0;strokeColor=inherit;top=0;left=0;bottom=0;right=0;collapsible=0;dropTarget=0;fillColor=none;points=[[0,0.5],[1,0.5]];portConstraint=eastwest;fontSize=16;" vertex="1" parent="FoYIN4kyer_GURNDrp6f-107">
          <mxGeometry y="140" width="180" height="20" as="geometry" />
        </mxCell>
        <mxCell id="FoYIN4kyer_GURNDrp6f-137" value="" style="shape=partialRectangle;html=1;whiteSpace=wrap;connectable=0;strokeColor=inherit;overflow=hidden;fillColor=none;top=0;left=0;bottom=0;right=0;pointerEvents=1;fontSize=16;" vertex="1" parent="FoYIN4kyer_GURNDrp6f-136">
          <mxGeometry width="60" height="20" as="geometry">
            <mxRectangle width="60" height="20" as="alternateBounds" />
          </mxGeometry>
        </mxCell>
        <mxCell id="FoYIN4kyer_GURNDrp6f-138" value="" style="shape=partialRectangle;html=1;whiteSpace=wrap;connectable=0;strokeColor=inherit;overflow=hidden;fillColor=none;top=0;left=0;bottom=0;right=0;pointerEvents=1;fontSize=16;" vertex="1" parent="FoYIN4kyer_GURNDrp6f-136">
          <mxGeometry x="60" width="60" height="20" as="geometry">
            <mxRectangle width="60" height="20" as="alternateBounds" />
          </mxGeometry>
        </mxCell>
        <mxCell id="FoYIN4kyer_GURNDrp6f-139" value="" style="shape=partialRectangle;html=1;whiteSpace=wrap;connectable=0;strokeColor=inherit;overflow=hidden;fillColor=none;top=0;left=0;bottom=0;right=0;pointerEvents=1;fontSize=16;" vertex="1" parent="FoYIN4kyer_GURNDrp6f-136">
          <mxGeometry x="120" width="60" height="20" as="geometry">
            <mxRectangle width="60" height="20" as="alternateBounds" />
          </mxGeometry>
        </mxCell>
        <mxCell id="FoYIN4kyer_GURNDrp6f-140" value="" style="shape=tableRow;horizontal=0;startSize=0;swimlaneHead=0;swimlaneBody=0;strokeColor=inherit;top=0;left=0;bottom=0;right=0;collapsible=0;dropTarget=0;fillColor=none;points=[[0,0.5],[1,0.5]];portConstraint=eastwest;fontSize=16;" vertex="1" parent="FoYIN4kyer_GURNDrp6f-107">
          <mxGeometry y="160" width="180" height="20" as="geometry" />
        </mxCell>
        <mxCell id="FoYIN4kyer_GURNDrp6f-141" value="" style="shape=partialRectangle;html=1;whiteSpace=wrap;connectable=0;strokeColor=inherit;overflow=hidden;fillColor=none;top=0;left=0;bottom=0;right=0;pointerEvents=1;fontSize=16;" vertex="1" parent="FoYIN4kyer_GURNDrp6f-140">
          <mxGeometry width="60" height="20" as="geometry">
            <mxRectangle width="60" height="20" as="alternateBounds" />
          </mxGeometry>
        </mxCell>
        <mxCell id="FoYIN4kyer_GURNDrp6f-142" value="" style="shape=partialRectangle;html=1;whiteSpace=wrap;connectable=0;strokeColor=inherit;overflow=hidden;fillColor=none;top=0;left=0;bottom=0;right=0;pointerEvents=1;fontSize=16;" vertex="1" parent="FoYIN4kyer_GURNDrp6f-140">
          <mxGeometry x="60" width="60" height="20" as="geometry">
            <mxRectangle width="60" height="20" as="alternateBounds" />
          </mxGeometry>
        </mxCell>
        <mxCell id="FoYIN4kyer_GURNDrp6f-143" value="" style="shape=partialRectangle;html=1;whiteSpace=wrap;connectable=0;strokeColor=inherit;overflow=hidden;fillColor=none;top=0;left=0;bottom=0;right=0;pointerEvents=1;fontSize=16;" vertex="1" parent="FoYIN4kyer_GURNDrp6f-140">
          <mxGeometry x="120" width="60" height="20" as="geometry">
            <mxRectangle width="60" height="20" as="alternateBounds" />
          </mxGeometry>
        </mxCell>
        <mxCell id="FoYIN4kyer_GURNDrp6f-144" value="Buscar" style="shape=ext;double=1;rounded=1;whiteSpace=wrap;html=1;" vertex="1" parent="FoYIN4kyer_GURNDrp6f-106">
          <mxGeometry x="10" width="150" height="20" as="geometry" />
        </mxCell>
        <mxCell id="FoYIN4kyer_GURNDrp6f-212" value="" style="group" vertex="1" connectable="0" parent="FoYIN4kyer_GURNDrp6f-106">
          <mxGeometry x="-5.000000000000014" y="60" width="190" height="100" as="geometry" />
        </mxCell>
        <mxCell id="FoYIN4kyer_GURNDrp6f-213" value="" style="shape=ext;double=1;rounded=1;whiteSpace=wrap;html=1;" vertex="1" parent="FoYIN4kyer_GURNDrp6f-212">
          <mxGeometry width="190" height="100" as="geometry" />
        </mxCell>
        <mxCell id="FoYIN4kyer_GURNDrp6f-214" value="&lt;font color=&quot;#ff3333&quot; style=&quot;font-size: 11px;&quot;&gt;Tem certeza que deseja continuar!&lt;/font&gt;" style="text;strokeColor=none;fillColor=none;html=1;fontSize=24;fontStyle=1;verticalAlign=middle;align=center;" vertex="1" parent="FoYIN4kyer_GURNDrp6f-212">
          <mxGeometry y="20" width="190" height="40" as="geometry" />
        </mxCell>
        <mxCell id="FoYIN4kyer_GURNDrp6f-215" value="" style="group" vertex="1" connectable="0" parent="FoYIN4kyer_GURNDrp6f-212">
          <mxGeometry x="42.22222222222222" width="105.55555555555556" height="40" as="geometry" />
        </mxCell>
        <mxCell id="FoYIN4kyer_GURNDrp6f-216" value="" style="verticalLabelPosition=bottom;verticalAlign=top;html=1;shape=mxgraph.basic.acute_triangle;dx=0.5;fillColor=#FFFF33;" vertex="1" parent="FoYIN4kyer_GURNDrp6f-215">
          <mxGeometry x="31.666666666666668" y="5" width="42.22222222222222" height="30" as="geometry" />
        </mxCell>
        <mxCell id="FoYIN4kyer_GURNDrp6f-217" value="&lt;font color=&quot;#ff3333&quot; style=&quot;font-size: 12px;&quot;&gt;!&lt;/font&gt;" style="text;strokeColor=none;fillColor=none;html=1;fontSize=24;fontStyle=1;verticalAlign=middle;align=center;" vertex="1" parent="FoYIN4kyer_GURNDrp6f-215">
          <mxGeometry width="105.55555555555556" height="40" as="geometry" />
        </mxCell>
        <mxCell id="FoYIN4kyer_GURNDrp6f-218" value="Sim" style="ellipse;shape=doubleEllipse;whiteSpace=wrap;html=1;" vertex="1" parent="FoYIN4kyer_GURNDrp6f-212">
          <mxGeometry x="31.666666666666668" y="60" width="52.77777777777778" height="30" as="geometry" />
        </mxCell>
        <mxCell id="FoYIN4kyer_GURNDrp6f-219" value="Não" style="ellipse;shape=doubleEllipse;whiteSpace=wrap;html=1;" vertex="1" parent="FoYIN4kyer_GURNDrp6f-212">
          <mxGeometry x="116.11111111111111" y="60" width="52.77777777777778" height="30" as="geometry" />
        </mxCell>
        <mxCell id="FoYIN4kyer_GURNDrp6f-145" value="" style="group" vertex="1" connectable="0" parent="FoYIN4kyer_GURNDrp6f-103">
          <mxGeometry x="20.000000000000014" y="395" width="220" height="30" as="geometry" />
        </mxCell>
        <mxCell id="FoYIN4kyer_GURNDrp6f-146" value="Voltar" style="shape=ext;double=1;rounded=1;whiteSpace=wrap;html=1;" vertex="1" parent="FoYIN4kyer_GURNDrp6f-145">
          <mxGeometry width="64.16666666666666" height="30" as="geometry" />
        </mxCell>
        <mxCell id="FoYIN4kyer_GURNDrp6f-147" value="Continuar" style="shape=ext;double=1;rounded=1;whiteSpace=wrap;html=1;" vertex="1" parent="FoYIN4kyer_GURNDrp6f-145">
          <mxGeometry x="75.16666666666666" width="64.16666666666666" height="30" as="geometry" />
        </mxCell>
        <mxCell id="FoYIN4kyer_GURNDrp6f-148" value="Cdastrar" style="shape=ext;double=1;rounded=1;whiteSpace=wrap;html=1;" vertex="1" parent="FoYIN4kyer_GURNDrp6f-145">
          <mxGeometry x="155.83333333333331" width="64.16666666666666" height="30" as="geometry" />
        </mxCell>
        <mxCell id="FoYIN4kyer_GURNDrp6f-150" value="" style="group" vertex="1" connectable="0" parent="1">
          <mxGeometry x="400" y="1200" width="250" height="480" as="geometry" />
        </mxCell>
        <mxCell id="FoYIN4kyer_GURNDrp6f-151" value="" style="shape=ext;double=1;rounded=1;whiteSpace=wrap;html=1;rotation=90;" vertex="1" parent="FoYIN4kyer_GURNDrp6f-150">
          <mxGeometry x="-114.99999999999999" y="115" width="480" height="250" as="geometry" />
        </mxCell>
        <mxCell id="FoYIN4kyer_GURNDrp6f-152" value="Matéria-Prima" style="ellipse;shape=doubleEllipse;whiteSpace=wrap;html=1;" vertex="1" parent="FoYIN4kyer_GURNDrp6f-150">
          <mxGeometry x="72.00000000000001" y="55" width="116" height="60" as="geometry" />
        </mxCell>
        <mxCell id="FoYIN4kyer_GURNDrp6f-153" value="" style="group" vertex="1" connectable="0" parent="FoYIN4kyer_GURNDrp6f-150">
          <mxGeometry x="40.000000000000014" y="145" width="191" height="220" as="geometry" />
        </mxCell>
        <mxCell id="FoYIN4kyer_GURNDrp6f-154" value="" style="shape=table;startSize=0;container=1;collapsible=0;childLayout=tableLayout;fontSize=16;" vertex="1" parent="FoYIN4kyer_GURNDrp6f-153">
          <mxGeometry y="40" width="180" height="180" as="geometry" />
        </mxCell>
        <mxCell id="FoYIN4kyer_GURNDrp6f-155" value="" style="shape=tableRow;horizontal=0;startSize=0;swimlaneHead=0;swimlaneBody=0;strokeColor=inherit;top=0;left=0;bottom=0;right=0;collapsible=0;dropTarget=0;fillColor=none;points=[[0,0.5],[1,0.5]];portConstraint=eastwest;fontSize=16;" vertex="1" parent="FoYIN4kyer_GURNDrp6f-154">
          <mxGeometry width="180" height="20" as="geometry" />
        </mxCell>
        <mxCell id="FoYIN4kyer_GURNDrp6f-156" value="" style="shape=partialRectangle;html=1;whiteSpace=wrap;connectable=0;strokeColor=inherit;overflow=hidden;fillColor=none;top=0;left=0;bottom=0;right=0;pointerEvents=1;fontSize=16;" vertex="1" parent="FoYIN4kyer_GURNDrp6f-155">
          <mxGeometry width="60" height="20" as="geometry">
            <mxRectangle width="60" height="20" as="alternateBounds" />
          </mxGeometry>
        </mxCell>
        <mxCell id="FoYIN4kyer_GURNDrp6f-157" value="" style="shape=partialRectangle;html=1;whiteSpace=wrap;connectable=0;strokeColor=inherit;overflow=hidden;fillColor=none;top=0;left=0;bottom=0;right=0;pointerEvents=1;fontSize=16;" vertex="1" parent="FoYIN4kyer_GURNDrp6f-155">
          <mxGeometry x="60" width="60" height="20" as="geometry">
            <mxRectangle width="60" height="20" as="alternateBounds" />
          </mxGeometry>
        </mxCell>
        <mxCell id="FoYIN4kyer_GURNDrp6f-158" value="" style="shape=partialRectangle;html=1;whiteSpace=wrap;connectable=0;strokeColor=inherit;overflow=hidden;fillColor=none;top=0;left=0;bottom=0;right=0;pointerEvents=1;fontSize=16;" vertex="1" parent="FoYIN4kyer_GURNDrp6f-155">
          <mxGeometry x="120" width="60" height="20" as="geometry">
            <mxRectangle width="60" height="20" as="alternateBounds" />
          </mxGeometry>
        </mxCell>
        <mxCell id="FoYIN4kyer_GURNDrp6f-159" value="" style="shape=tableRow;horizontal=0;startSize=0;swimlaneHead=0;swimlaneBody=0;strokeColor=inherit;top=0;left=0;bottom=0;right=0;collapsible=0;dropTarget=0;fillColor=none;points=[[0,0.5],[1,0.5]];portConstraint=eastwest;fontSize=16;" vertex="1" parent="FoYIN4kyer_GURNDrp6f-154">
          <mxGeometry y="20" width="180" height="20" as="geometry" />
        </mxCell>
        <mxCell id="FoYIN4kyer_GURNDrp6f-160" value="" style="shape=partialRectangle;html=1;whiteSpace=wrap;connectable=0;strokeColor=inherit;overflow=hidden;fillColor=none;top=0;left=0;bottom=0;right=0;pointerEvents=1;fontSize=16;" vertex="1" parent="FoYIN4kyer_GURNDrp6f-159">
          <mxGeometry width="60" height="20" as="geometry">
            <mxRectangle width="60" height="20" as="alternateBounds" />
          </mxGeometry>
        </mxCell>
        <mxCell id="FoYIN4kyer_GURNDrp6f-161" value="" style="shape=partialRectangle;html=1;whiteSpace=wrap;connectable=0;strokeColor=inherit;overflow=hidden;fillColor=none;top=0;left=0;bottom=0;right=0;pointerEvents=1;fontSize=16;" vertex="1" parent="FoYIN4kyer_GURNDrp6f-159">
          <mxGeometry x="60" width="60" height="20" as="geometry">
            <mxRectangle width="60" height="20" as="alternateBounds" />
          </mxGeometry>
        </mxCell>
        <mxCell id="FoYIN4kyer_GURNDrp6f-162" value="" style="shape=partialRectangle;html=1;whiteSpace=wrap;connectable=0;strokeColor=inherit;overflow=hidden;fillColor=none;top=0;left=0;bottom=0;right=0;pointerEvents=1;fontSize=16;" vertex="1" parent="FoYIN4kyer_GURNDrp6f-159">
          <mxGeometry x="120" width="60" height="20" as="geometry">
            <mxRectangle width="60" height="20" as="alternateBounds" />
          </mxGeometry>
        </mxCell>
        <mxCell id="FoYIN4kyer_GURNDrp6f-163" value="" style="shape=tableRow;horizontal=0;startSize=0;swimlaneHead=0;swimlaneBody=0;strokeColor=inherit;top=0;left=0;bottom=0;right=0;collapsible=0;dropTarget=0;fillColor=none;points=[[0,0.5],[1,0.5]];portConstraint=eastwest;fontSize=16;" vertex="1" parent="FoYIN4kyer_GURNDrp6f-154">
          <mxGeometry y="40" width="180" height="20" as="geometry" />
        </mxCell>
        <mxCell id="FoYIN4kyer_GURNDrp6f-164" value="" style="shape=partialRectangle;html=1;whiteSpace=wrap;connectable=0;strokeColor=inherit;overflow=hidden;fillColor=none;top=0;left=0;bottom=0;right=0;pointerEvents=1;fontSize=16;" vertex="1" parent="FoYIN4kyer_GURNDrp6f-163">
          <mxGeometry width="60" height="20" as="geometry">
            <mxRectangle width="60" height="20" as="alternateBounds" />
          </mxGeometry>
        </mxCell>
        <mxCell id="FoYIN4kyer_GURNDrp6f-165" value="" style="shape=partialRectangle;html=1;whiteSpace=wrap;connectable=0;strokeColor=inherit;overflow=hidden;fillColor=none;top=0;left=0;bottom=0;right=0;pointerEvents=1;fontSize=16;" vertex="1" parent="FoYIN4kyer_GURNDrp6f-163">
          <mxGeometry x="60" width="60" height="20" as="geometry">
            <mxRectangle width="60" height="20" as="alternateBounds" />
          </mxGeometry>
        </mxCell>
        <mxCell id="FoYIN4kyer_GURNDrp6f-166" value="" style="shape=partialRectangle;html=1;whiteSpace=wrap;connectable=0;strokeColor=inherit;overflow=hidden;fillColor=none;top=0;left=0;bottom=0;right=0;pointerEvents=1;fontSize=16;" vertex="1" parent="FoYIN4kyer_GURNDrp6f-163">
          <mxGeometry x="120" width="60" height="20" as="geometry">
            <mxRectangle width="60" height="20" as="alternateBounds" />
          </mxGeometry>
        </mxCell>
        <mxCell id="FoYIN4kyer_GURNDrp6f-167" value="" style="shape=tableRow;horizontal=0;startSize=0;swimlaneHead=0;swimlaneBody=0;strokeColor=inherit;top=0;left=0;bottom=0;right=0;collapsible=0;dropTarget=0;fillColor=none;points=[[0,0.5],[1,0.5]];portConstraint=eastwest;fontSize=16;" vertex="1" parent="FoYIN4kyer_GURNDrp6f-154">
          <mxGeometry y="60" width="180" height="20" as="geometry" />
        </mxCell>
        <mxCell id="FoYIN4kyer_GURNDrp6f-168" value="" style="shape=partialRectangle;html=1;whiteSpace=wrap;connectable=0;strokeColor=inherit;overflow=hidden;fillColor=none;top=0;left=0;bottom=0;right=0;pointerEvents=1;fontSize=16;" vertex="1" parent="FoYIN4kyer_GURNDrp6f-167">
          <mxGeometry width="60" height="20" as="geometry">
            <mxRectangle width="60" height="20" as="alternateBounds" />
          </mxGeometry>
        </mxCell>
        <mxCell id="FoYIN4kyer_GURNDrp6f-169" value="" style="shape=partialRectangle;html=1;whiteSpace=wrap;connectable=0;strokeColor=inherit;overflow=hidden;fillColor=none;top=0;left=0;bottom=0;right=0;pointerEvents=1;fontSize=16;" vertex="1" parent="FoYIN4kyer_GURNDrp6f-167">
          <mxGeometry x="60" width="60" height="20" as="geometry">
            <mxRectangle width="60" height="20" as="alternateBounds" />
          </mxGeometry>
        </mxCell>
        <mxCell id="FoYIN4kyer_GURNDrp6f-170" value="" style="shape=partialRectangle;html=1;whiteSpace=wrap;connectable=0;strokeColor=inherit;overflow=hidden;fillColor=none;top=0;left=0;bottom=0;right=0;pointerEvents=1;fontSize=16;" vertex="1" parent="FoYIN4kyer_GURNDrp6f-167">
          <mxGeometry x="120" width="60" height="20" as="geometry">
            <mxRectangle width="60" height="20" as="alternateBounds" />
          </mxGeometry>
        </mxCell>
        <mxCell id="FoYIN4kyer_GURNDrp6f-171" value="" style="shape=tableRow;horizontal=0;startSize=0;swimlaneHead=0;swimlaneBody=0;strokeColor=inherit;top=0;left=0;bottom=0;right=0;collapsible=0;dropTarget=0;fillColor=none;points=[[0,0.5],[1,0.5]];portConstraint=eastwest;fontSize=16;" vertex="1" parent="FoYIN4kyer_GURNDrp6f-154">
          <mxGeometry y="80" width="180" height="20" as="geometry" />
        </mxCell>
        <mxCell id="FoYIN4kyer_GURNDrp6f-172" value="" style="shape=partialRectangle;html=1;whiteSpace=wrap;connectable=0;strokeColor=inherit;overflow=hidden;fillColor=none;top=0;left=0;bottom=0;right=0;pointerEvents=1;fontSize=16;" vertex="1" parent="FoYIN4kyer_GURNDrp6f-171">
          <mxGeometry width="60" height="20" as="geometry">
            <mxRectangle width="60" height="20" as="alternateBounds" />
          </mxGeometry>
        </mxCell>
        <mxCell id="FoYIN4kyer_GURNDrp6f-173" value="" style="shape=partialRectangle;html=1;whiteSpace=wrap;connectable=0;strokeColor=inherit;overflow=hidden;fillColor=none;top=0;left=0;bottom=0;right=0;pointerEvents=1;fontSize=16;" vertex="1" parent="FoYIN4kyer_GURNDrp6f-171">
          <mxGeometry x="60" width="60" height="20" as="geometry">
            <mxRectangle width="60" height="20" as="alternateBounds" />
          </mxGeometry>
        </mxCell>
        <mxCell id="FoYIN4kyer_GURNDrp6f-174" value="" style="shape=partialRectangle;html=1;whiteSpace=wrap;connectable=0;strokeColor=inherit;overflow=hidden;fillColor=none;top=0;left=0;bottom=0;right=0;pointerEvents=1;fontSize=16;" vertex="1" parent="FoYIN4kyer_GURNDrp6f-171">
          <mxGeometry x="120" width="60" height="20" as="geometry">
            <mxRectangle width="60" height="20" as="alternateBounds" />
          </mxGeometry>
        </mxCell>
        <mxCell id="FoYIN4kyer_GURNDrp6f-175" value="" style="shape=tableRow;horizontal=0;startSize=0;swimlaneHead=0;swimlaneBody=0;strokeColor=inherit;top=0;left=0;bottom=0;right=0;collapsible=0;dropTarget=0;fillColor=none;points=[[0,0.5],[1,0.5]];portConstraint=eastwest;fontSize=16;" vertex="1" parent="FoYIN4kyer_GURNDrp6f-154">
          <mxGeometry y="100" width="180" height="20" as="geometry" />
        </mxCell>
        <mxCell id="FoYIN4kyer_GURNDrp6f-176" value="" style="shape=partialRectangle;html=1;whiteSpace=wrap;connectable=0;strokeColor=inherit;overflow=hidden;fillColor=none;top=0;left=0;bottom=0;right=0;pointerEvents=1;fontSize=16;" vertex="1" parent="FoYIN4kyer_GURNDrp6f-175">
          <mxGeometry width="60" height="20" as="geometry">
            <mxRectangle width="60" height="20" as="alternateBounds" />
          </mxGeometry>
        </mxCell>
        <mxCell id="FoYIN4kyer_GURNDrp6f-177" value="" style="shape=partialRectangle;html=1;whiteSpace=wrap;connectable=0;strokeColor=inherit;overflow=hidden;fillColor=none;top=0;left=0;bottom=0;right=0;pointerEvents=1;fontSize=16;" vertex="1" parent="FoYIN4kyer_GURNDrp6f-175">
          <mxGeometry x="60" width="60" height="20" as="geometry">
            <mxRectangle width="60" height="20" as="alternateBounds" />
          </mxGeometry>
        </mxCell>
        <mxCell id="FoYIN4kyer_GURNDrp6f-178" value="" style="shape=partialRectangle;html=1;whiteSpace=wrap;connectable=0;strokeColor=inherit;overflow=hidden;fillColor=none;top=0;left=0;bottom=0;right=0;pointerEvents=1;fontSize=16;" vertex="1" parent="FoYIN4kyer_GURNDrp6f-175">
          <mxGeometry x="120" width="60" height="20" as="geometry">
            <mxRectangle width="60" height="20" as="alternateBounds" />
          </mxGeometry>
        </mxCell>
        <mxCell id="FoYIN4kyer_GURNDrp6f-179" value="" style="shape=tableRow;horizontal=0;startSize=0;swimlaneHead=0;swimlaneBody=0;strokeColor=inherit;top=0;left=0;bottom=0;right=0;collapsible=0;dropTarget=0;fillColor=none;points=[[0,0.5],[1,0.5]];portConstraint=eastwest;fontSize=16;" vertex="1" parent="FoYIN4kyer_GURNDrp6f-154">
          <mxGeometry y="120" width="180" height="20" as="geometry" />
        </mxCell>
        <mxCell id="FoYIN4kyer_GURNDrp6f-180" value="" style="shape=partialRectangle;html=1;whiteSpace=wrap;connectable=0;strokeColor=inherit;overflow=hidden;fillColor=none;top=0;left=0;bottom=0;right=0;pointerEvents=1;fontSize=16;" vertex="1" parent="FoYIN4kyer_GURNDrp6f-179">
          <mxGeometry width="60" height="20" as="geometry">
            <mxRectangle width="60" height="20" as="alternateBounds" />
          </mxGeometry>
        </mxCell>
        <mxCell id="FoYIN4kyer_GURNDrp6f-181" value="" style="shape=partialRectangle;html=1;whiteSpace=wrap;connectable=0;strokeColor=inherit;overflow=hidden;fillColor=none;top=0;left=0;bottom=0;right=0;pointerEvents=1;fontSize=16;" vertex="1" parent="FoYIN4kyer_GURNDrp6f-179">
          <mxGeometry x="60" width="60" height="20" as="geometry">
            <mxRectangle width="60" height="20" as="alternateBounds" />
          </mxGeometry>
        </mxCell>
        <mxCell id="FoYIN4kyer_GURNDrp6f-182" value="" style="shape=partialRectangle;html=1;whiteSpace=wrap;connectable=0;strokeColor=inherit;overflow=hidden;fillColor=none;top=0;left=0;bottom=0;right=0;pointerEvents=1;fontSize=16;" vertex="1" parent="FoYIN4kyer_GURNDrp6f-179">
          <mxGeometry x="120" width="60" height="20" as="geometry">
            <mxRectangle width="60" height="20" as="alternateBounds" />
          </mxGeometry>
        </mxCell>
        <mxCell id="FoYIN4kyer_GURNDrp6f-183" value="" style="shape=tableRow;horizontal=0;startSize=0;swimlaneHead=0;swimlaneBody=0;strokeColor=inherit;top=0;left=0;bottom=0;right=0;collapsible=0;dropTarget=0;fillColor=none;points=[[0,0.5],[1,0.5]];portConstraint=eastwest;fontSize=16;" vertex="1" parent="FoYIN4kyer_GURNDrp6f-154">
          <mxGeometry y="140" width="180" height="20" as="geometry" />
        </mxCell>
        <mxCell id="FoYIN4kyer_GURNDrp6f-184" value="" style="shape=partialRectangle;html=1;whiteSpace=wrap;connectable=0;strokeColor=inherit;overflow=hidden;fillColor=none;top=0;left=0;bottom=0;right=0;pointerEvents=1;fontSize=16;" vertex="1" parent="FoYIN4kyer_GURNDrp6f-183">
          <mxGeometry width="60" height="20" as="geometry">
            <mxRectangle width="60" height="20" as="alternateBounds" />
          </mxGeometry>
        </mxCell>
        <mxCell id="FoYIN4kyer_GURNDrp6f-185" value="" style="shape=partialRectangle;html=1;whiteSpace=wrap;connectable=0;strokeColor=inherit;overflow=hidden;fillColor=none;top=0;left=0;bottom=0;right=0;pointerEvents=1;fontSize=16;" vertex="1" parent="FoYIN4kyer_GURNDrp6f-183">
          <mxGeometry x="60" width="60" height="20" as="geometry">
            <mxRectangle width="60" height="20" as="alternateBounds" />
          </mxGeometry>
        </mxCell>
        <mxCell id="FoYIN4kyer_GURNDrp6f-186" value="" style="shape=partialRectangle;html=1;whiteSpace=wrap;connectable=0;strokeColor=inherit;overflow=hidden;fillColor=none;top=0;left=0;bottom=0;right=0;pointerEvents=1;fontSize=16;" vertex="1" parent="FoYIN4kyer_GURNDrp6f-183">
          <mxGeometry x="120" width="60" height="20" as="geometry">
            <mxRectangle width="60" height="20" as="alternateBounds" />
          </mxGeometry>
        </mxCell>
        <mxCell id="FoYIN4kyer_GURNDrp6f-187" value="" style="shape=tableRow;horizontal=0;startSize=0;swimlaneHead=0;swimlaneBody=0;strokeColor=inherit;top=0;left=0;bottom=0;right=0;collapsible=0;dropTarget=0;fillColor=none;points=[[0,0.5],[1,0.5]];portConstraint=eastwest;fontSize=16;" vertex="1" parent="FoYIN4kyer_GURNDrp6f-154">
          <mxGeometry y="160" width="180" height="20" as="geometry" />
        </mxCell>
        <mxCell id="FoYIN4kyer_GURNDrp6f-188" value="" style="shape=partialRectangle;html=1;whiteSpace=wrap;connectable=0;strokeColor=inherit;overflow=hidden;fillColor=none;top=0;left=0;bottom=0;right=0;pointerEvents=1;fontSize=16;" vertex="1" parent="FoYIN4kyer_GURNDrp6f-187">
          <mxGeometry width="60" height="20" as="geometry">
            <mxRectangle width="60" height="20" as="alternateBounds" />
          </mxGeometry>
        </mxCell>
        <mxCell id="FoYIN4kyer_GURNDrp6f-189" value="" style="shape=partialRectangle;html=1;whiteSpace=wrap;connectable=0;strokeColor=inherit;overflow=hidden;fillColor=none;top=0;left=0;bottom=0;right=0;pointerEvents=1;fontSize=16;" vertex="1" parent="FoYIN4kyer_GURNDrp6f-187">
          <mxGeometry x="60" width="60" height="20" as="geometry">
            <mxRectangle width="60" height="20" as="alternateBounds" />
          </mxGeometry>
        </mxCell>
        <mxCell id="FoYIN4kyer_GURNDrp6f-190" value="" style="shape=partialRectangle;html=1;whiteSpace=wrap;connectable=0;strokeColor=inherit;overflow=hidden;fillColor=none;top=0;left=0;bottom=0;right=0;pointerEvents=1;fontSize=16;" vertex="1" parent="FoYIN4kyer_GURNDrp6f-187">
          <mxGeometry x="120" width="60" height="20" as="geometry">
            <mxRectangle width="60" height="20" as="alternateBounds" />
          </mxGeometry>
        </mxCell>
        <mxCell id="FoYIN4kyer_GURNDrp6f-191" value="Buscar" style="shape=ext;double=1;rounded=1;whiteSpace=wrap;html=1;" vertex="1" parent="FoYIN4kyer_GURNDrp6f-153">
          <mxGeometry x="10" width="150" height="20" as="geometry" />
        </mxCell>
        <mxCell id="FoYIN4kyer_GURNDrp6f-204" value="" style="group" vertex="1" connectable="0" parent="FoYIN4kyer_GURNDrp6f-153">
          <mxGeometry x="-11" y="60" width="202" height="100" as="geometry" />
        </mxCell>
        <mxCell id="FoYIN4kyer_GURNDrp6f-205" value="" style="shape=ext;double=1;rounded=1;whiteSpace=wrap;html=1;" vertex="1" parent="FoYIN4kyer_GURNDrp6f-204">
          <mxGeometry width="202" height="100" as="geometry" />
        </mxCell>
        <mxCell id="FoYIN4kyer_GURNDrp6f-206" value="&lt;font color=&quot;#ff3333&quot; style=&quot;font-size: 12px;&quot;&gt;Tem certeza que deseja cadastrar!&lt;/font&gt;" style="text;strokeColor=none;fillColor=none;html=1;fontSize=24;fontStyle=1;verticalAlign=middle;align=center;" vertex="1" parent="FoYIN4kyer_GURNDrp6f-204">
          <mxGeometry y="20" width="202" height="40" as="geometry" />
        </mxCell>
        <mxCell id="FoYIN4kyer_GURNDrp6f-207" value="" style="group" vertex="1" connectable="0" parent="FoYIN4kyer_GURNDrp6f-204">
          <mxGeometry x="44.888888888888886" width="112.22222222222221" height="40" as="geometry" />
        </mxCell>
        <mxCell id="FoYIN4kyer_GURNDrp6f-208" value="" style="verticalLabelPosition=bottom;verticalAlign=top;html=1;shape=mxgraph.basic.acute_triangle;dx=0.5;fillColor=#FFFF33;" vertex="1" parent="FoYIN4kyer_GURNDrp6f-207">
          <mxGeometry x="33.666666666666664" y="5" width="44.888888888888886" height="30" as="geometry" />
        </mxCell>
        <mxCell id="FoYIN4kyer_GURNDrp6f-209" value="&lt;font color=&quot;#ff3333&quot; style=&quot;font-size: 12px;&quot;&gt;!&lt;/font&gt;" style="text;strokeColor=none;fillColor=none;html=1;fontSize=24;fontStyle=1;verticalAlign=middle;align=center;" vertex="1" parent="FoYIN4kyer_GURNDrp6f-207">
          <mxGeometry width="112.22222222222221" height="40" as="geometry" />
        </mxCell>
        <mxCell id="FoYIN4kyer_GURNDrp6f-210" value="Sim" style="ellipse;shape=doubleEllipse;whiteSpace=wrap;html=1;" vertex="1" parent="FoYIN4kyer_GURNDrp6f-204">
          <mxGeometry x="33.666666666666664" y="60" width="56.11111111111111" height="30" as="geometry" />
        </mxCell>
        <mxCell id="FoYIN4kyer_GURNDrp6f-211" value="Não" style="ellipse;shape=doubleEllipse;whiteSpace=wrap;html=1;" vertex="1" parent="FoYIN4kyer_GURNDrp6f-204">
          <mxGeometry x="123.44444444444443" y="60" width="56.11111111111111" height="30" as="geometry" />
        </mxCell>
        <mxCell id="FoYIN4kyer_GURNDrp6f-192" value="" style="group" vertex="1" connectable="0" parent="FoYIN4kyer_GURNDrp6f-150">
          <mxGeometry x="20.000000000000014" y="395" width="220" height="30" as="geometry" />
        </mxCell>
        <mxCell id="FoYIN4kyer_GURNDrp6f-193" value="Voltar" style="shape=ext;double=1;rounded=1;whiteSpace=wrap;html=1;" vertex="1" parent="FoYIN4kyer_GURNDrp6f-192">
          <mxGeometry width="64.16666666666666" height="30" as="geometry" />
        </mxCell>
        <mxCell id="FoYIN4kyer_GURNDrp6f-194" value="Continuar" style="shape=ext;double=1;rounded=1;whiteSpace=wrap;html=1;" vertex="1" parent="FoYIN4kyer_GURNDrp6f-192">
          <mxGeometry x="75.16666666666666" width="64.16666666666666" height="30" as="geometry" />
        </mxCell>
        <mxCell id="FoYIN4kyer_GURNDrp6f-195" value="Cdastrar" style="shape=ext;double=1;rounded=1;whiteSpace=wrap;html=1;" vertex="1" parent="FoYIN4kyer_GURNDrp6f-192">
          <mxGeometry x="155.83333333333331" width="64.16666666666666" height="30" as="geometry" />
        </mxCell>
        <mxCell id="FoYIN4kyer_GURNDrp6f-203" value="" style="group" vertex="1" connectable="0" parent="1">
          <mxGeometry x="440" y="770" width="180" height="100" as="geometry" />
        </mxCell>
        <mxCell id="FoYIN4kyer_GURNDrp6f-196" value="" style="shape=ext;double=1;rounded=1;whiteSpace=wrap;html=1;" vertex="1" parent="FoYIN4kyer_GURNDrp6f-203">
          <mxGeometry width="180" height="100" as="geometry" />
        </mxCell>
        <mxCell id="FoYIN4kyer_GURNDrp6f-197" value="&lt;font color=&quot;#ff3333&quot; style=&quot;font-size: 12px;&quot;&gt;Tem certeza que deseja voltar!&lt;/font&gt;" style="text;strokeColor=none;fillColor=none;html=1;fontSize=24;fontStyle=1;verticalAlign=middle;align=center;" vertex="1" parent="FoYIN4kyer_GURNDrp6f-203">
          <mxGeometry y="20" width="180" height="40" as="geometry" />
        </mxCell>
        <mxCell id="FoYIN4kyer_GURNDrp6f-200" value="" style="group" vertex="1" connectable="0" parent="FoYIN4kyer_GURNDrp6f-203">
          <mxGeometry x="40" width="100" height="40" as="geometry" />
        </mxCell>
        <mxCell id="FoYIN4kyer_GURNDrp6f-198" value="" style="verticalLabelPosition=bottom;verticalAlign=top;html=1;shape=mxgraph.basic.acute_triangle;dx=0.5;fillColor=#FFFF33;" vertex="1" parent="FoYIN4kyer_GURNDrp6f-200">
          <mxGeometry x="30" y="5" width="40" height="30" as="geometry" />
        </mxCell>
        <mxCell id="FoYIN4kyer_GURNDrp6f-199" value="&lt;font color=&quot;#ff3333&quot; style=&quot;font-size: 12px;&quot;&gt;!&lt;/font&gt;" style="text;strokeColor=none;fillColor=none;html=1;fontSize=24;fontStyle=1;verticalAlign=middle;align=center;" vertex="1" parent="FoYIN4kyer_GURNDrp6f-200">
          <mxGeometry width="100" height="40" as="geometry" />
        </mxCell>
        <mxCell id="FoYIN4kyer_GURNDrp6f-201" value="Sim" style="ellipse;shape=doubleEllipse;whiteSpace=wrap;html=1;" vertex="1" parent="FoYIN4kyer_GURNDrp6f-203">
          <mxGeometry x="30" y="60" width="50" height="30" as="geometry" />
        </mxCell>
        <mxCell id="FoYIN4kyer_GURNDrp6f-202" value="Não" style="ellipse;shape=doubleEllipse;whiteSpace=wrap;html=1;" vertex="1" parent="FoYIN4kyer_GURNDrp6f-203">
          <mxGeometry x="110" y="60" width="50" height="30" as="geometry" />
        </mxCell>
        <mxCell id="FoYIN4kyer_GURNDrp6f-312" value="" style="group" vertex="1" connectable="0" parent="1">
          <mxGeometry x="39.999999999999986" y="1725" width="250" height="480" as="geometry" />
        </mxCell>
        <mxCell id="FoYIN4kyer_GURNDrp6f-276" value="" style="shape=ext;double=1;rounded=1;whiteSpace=wrap;html=1;rotation=90;" vertex="1" parent="FoYIN4kyer_GURNDrp6f-312">
          <mxGeometry x="-114.99999999999997" y="115" width="480" height="250" as="geometry" />
        </mxCell>
        <mxCell id="FoYIN4kyer_GURNDrp6f-290" value="" style="group" vertex="1" connectable="0" parent="FoYIN4kyer_GURNDrp6f-312">
          <mxGeometry x="15.000000000000014" y="160" width="220" height="160" as="geometry" />
        </mxCell>
        <mxCell id="FoYIN4kyer_GURNDrp6f-277" value="" style="shape=ext;double=1;rounded=1;whiteSpace=wrap;html=1;" vertex="1" parent="FoYIN4kyer_GURNDrp6f-290">
          <mxGeometry x="60" y="5" width="160" height="15" as="geometry" />
        </mxCell>
        <mxCell id="FoYIN4kyer_GURNDrp6f-281" value="" style="shape=ext;double=1;rounded=1;whiteSpace=wrap;html=1;" vertex="1" parent="FoYIN4kyer_GURNDrp6f-290">
          <mxGeometry x="60" y="55" width="160" height="15" as="geometry" />
        </mxCell>
        <mxCell id="FoYIN4kyer_GURNDrp6f-282" value="" style="shape=ext;double=1;rounded=1;whiteSpace=wrap;html=1;" vertex="1" parent="FoYIN4kyer_GURNDrp6f-290">
          <mxGeometry x="60" y="105" width="160" height="15" as="geometry" />
        </mxCell>
        <mxCell id="FoYIN4kyer_GURNDrp6f-283" value="&lt;span style=&quot;font-size: 12px;&quot;&gt;Tipo&lt;/span&gt;" style="text;strokeColor=none;fillColor=none;html=1;fontSize=24;fontStyle=1;verticalAlign=middle;align=center;" vertex="1" parent="FoYIN4kyer_GURNDrp6f-290">
          <mxGeometry x="12" width="60" height="20" as="geometry" />
        </mxCell>
        <mxCell id="FoYIN4kyer_GURNDrp6f-284" value="&lt;font style=&quot;font-size: 12px;&quot;&gt;Nome&lt;/font&gt;" style="text;strokeColor=none;fillColor=none;html=1;fontSize=24;fontStyle=1;verticalAlign=middle;align=center;" vertex="1" parent="FoYIN4kyer_GURNDrp6f-290">
          <mxGeometry x="10" y="50" width="60" height="20" as="geometry" />
        </mxCell>
        <mxCell id="FoYIN4kyer_GURNDrp6f-285" value="&lt;font style=&quot;font-size: 12px;&quot;&gt;Unidade&lt;/font&gt;" style="text;strokeColor=none;fillColor=none;html=1;fontSize=24;fontStyle=1;verticalAlign=middle;align=center;" vertex="1" parent="FoYIN4kyer_GURNDrp6f-290">
          <mxGeometry y="100" width="60" height="20" as="geometry" />
        </mxCell>
        <mxCell id="FoYIN4kyer_GURNDrp6f-286" value="" style="shape=ext;double=1;rounded=1;whiteSpace=wrap;html=1;" vertex="1" parent="FoYIN4kyer_GURNDrp6f-290">
          <mxGeometry x="60" y="145" width="160" height="15" as="geometry" />
        </mxCell>
        <mxCell id="FoYIN4kyer_GURNDrp6f-287" value="&lt;font style=&quot;font-size: 12px;&quot;&gt;Valor&lt;/font&gt;" style="text;strokeColor=none;fillColor=none;html=1;fontSize=24;fontStyle=1;verticalAlign=middle;align=center;" vertex="1" parent="FoYIN4kyer_GURNDrp6f-290">
          <mxGeometry x="12" y="140" width="60" height="20" as="geometry" />
        </mxCell>
        <mxCell id="FoYIN4kyer_GURNDrp6f-292" value="" style="group" vertex="1" connectable="0" parent="FoYIN4kyer_GURNDrp6f-312">
          <mxGeometry x="20.000000000000014" y="385" width="220" height="30" as="geometry" />
        </mxCell>
        <mxCell id="FoYIN4kyer_GURNDrp6f-293" value="Voltar" style="shape=ext;double=1;rounded=1;whiteSpace=wrap;html=1;" vertex="1" parent="FoYIN4kyer_GURNDrp6f-292">
          <mxGeometry width="64.16666666666666" height="30" as="geometry" />
        </mxCell>
        <mxCell id="FoYIN4kyer_GURNDrp6f-294" value="Continuar" style="shape=ext;double=1;rounded=1;whiteSpace=wrap;html=1;" vertex="1" parent="FoYIN4kyer_GURNDrp6f-292">
          <mxGeometry x="75.16666666666666" width="64.16666666666666" height="30" as="geometry" />
        </mxCell>
        <mxCell id="FoYIN4kyer_GURNDrp6f-295" value="Cdastrar" style="shape=ext;double=1;rounded=1;whiteSpace=wrap;html=1;" vertex="1" parent="FoYIN4kyer_GURNDrp6f-292">
          <mxGeometry x="155.83333333333331" width="64.16666666666666" height="30" as="geometry" />
        </mxCell>
        <mxCell id="FoYIN4kyer_GURNDrp6f-296" value="Matéria-Prima" style="ellipse;shape=doubleEllipse;whiteSpace=wrap;html=1;" vertex="1" parent="FoYIN4kyer_GURNDrp6f-312">
          <mxGeometry x="70.00000000000001" y="55" width="116" height="60" as="geometry" />
        </mxCell>
        <mxCell id="FoYIN4kyer_GURNDrp6f-313" value="" style="group" vertex="1" connectable="0" parent="1">
          <mxGeometry x="400" y="1725" width="250" height="480" as="geometry" />
        </mxCell>
        <mxCell id="FoYIN4kyer_GURNDrp6f-297" value="" style="shape=ext;double=1;rounded=1;whiteSpace=wrap;html=1;rotation=90;" vertex="1" parent="FoYIN4kyer_GURNDrp6f-313">
          <mxGeometry x="-115" y="115" width="480" height="250" as="geometry" />
        </mxCell>
        <mxCell id="FoYIN4kyer_GURNDrp6f-298" value="" style="group" vertex="1" connectable="0" parent="FoYIN4kyer_GURNDrp6f-313">
          <mxGeometry x="15" y="160" width="220" height="160" as="geometry" />
        </mxCell>
        <mxCell id="FoYIN4kyer_GURNDrp6f-299" value="" style="shape=ext;double=1;rounded=1;whiteSpace=wrap;html=1;" vertex="1" parent="FoYIN4kyer_GURNDrp6f-298">
          <mxGeometry x="60" y="5" width="160" height="15" as="geometry" />
        </mxCell>
        <mxCell id="FoYIN4kyer_GURNDrp6f-300" value="" style="shape=ext;double=1;rounded=1;whiteSpace=wrap;html=1;" vertex="1" parent="FoYIN4kyer_GURNDrp6f-298">
          <mxGeometry x="60" y="55" width="160" height="15" as="geometry" />
        </mxCell>
        <mxCell id="FoYIN4kyer_GURNDrp6f-301" value="" style="shape=ext;double=1;rounded=1;whiteSpace=wrap;html=1;" vertex="1" parent="FoYIN4kyer_GURNDrp6f-298">
          <mxGeometry x="60" y="105" width="160" height="15" as="geometry" />
        </mxCell>
        <mxCell id="FoYIN4kyer_GURNDrp6f-302" value="&lt;span style=&quot;font-size: 12px;&quot;&gt;Tipo&lt;/span&gt;" style="text;strokeColor=none;fillColor=none;html=1;fontSize=24;fontStyle=1;verticalAlign=middle;align=center;" vertex="1" parent="FoYIN4kyer_GURNDrp6f-298">
          <mxGeometry x="12" width="60" height="20" as="geometry" />
        </mxCell>
        <mxCell id="FoYIN4kyer_GURNDrp6f-303" value="&lt;font style=&quot;font-size: 12px;&quot;&gt;Nome&lt;/font&gt;" style="text;strokeColor=none;fillColor=none;html=1;fontSize=24;fontStyle=1;verticalAlign=middle;align=center;" vertex="1" parent="FoYIN4kyer_GURNDrp6f-298">
          <mxGeometry x="10" y="50" width="60" height="20" as="geometry" />
        </mxCell>
        <mxCell id="FoYIN4kyer_GURNDrp6f-304" value="&lt;font style=&quot;font-size: 12px;&quot;&gt;Unidade&lt;/font&gt;" style="text;strokeColor=none;fillColor=none;html=1;fontSize=24;fontStyle=1;verticalAlign=middle;align=center;" vertex="1" parent="FoYIN4kyer_GURNDrp6f-298">
          <mxGeometry y="100" width="60" height="20" as="geometry" />
        </mxCell>
        <mxCell id="FoYIN4kyer_GURNDrp6f-305" value="" style="shape=ext;double=1;rounded=1;whiteSpace=wrap;html=1;" vertex="1" parent="FoYIN4kyer_GURNDrp6f-298">
          <mxGeometry x="60" y="145" width="160" height="15" as="geometry" />
        </mxCell>
        <mxCell id="FoYIN4kyer_GURNDrp6f-306" value="&lt;font style=&quot;font-size: 12px;&quot;&gt;Valor&lt;/font&gt;" style="text;strokeColor=none;fillColor=none;html=1;fontSize=24;fontStyle=1;verticalAlign=middle;align=center;" vertex="1" parent="FoYIN4kyer_GURNDrp6f-298">
          <mxGeometry x="12" y="140" width="60" height="20" as="geometry" />
        </mxCell>
        <mxCell id="FoYIN4kyer_GURNDrp6f-307" value="" style="group" vertex="1" connectable="0" parent="FoYIN4kyer_GURNDrp6f-313">
          <mxGeometry x="20" y="385" width="220" height="30" as="geometry" />
        </mxCell>
        <mxCell id="FoYIN4kyer_GURNDrp6f-308" value="Voltar" style="shape=ext;double=1;rounded=1;whiteSpace=wrap;html=1;" vertex="1" parent="FoYIN4kyer_GURNDrp6f-307">
          <mxGeometry width="64.16666666666666" height="30" as="geometry" />
        </mxCell>
        <mxCell id="FoYIN4kyer_GURNDrp6f-309" value="Continuar" style="shape=ext;double=1;rounded=1;whiteSpace=wrap;html=1;" vertex="1" parent="FoYIN4kyer_GURNDrp6f-307">
          <mxGeometry x="75.16666666666666" width="64.16666666666666" height="30" as="geometry" />
        </mxCell>
        <mxCell id="FoYIN4kyer_GURNDrp6f-310" value="Cdastrar" style="shape=ext;double=1;rounded=1;whiteSpace=wrap;html=1;" vertex="1" parent="FoYIN4kyer_GURNDrp6f-307">
          <mxGeometry x="155.83333333333331" width="64.16666666666666" height="30" as="geometry" />
        </mxCell>
        <mxCell id="FoYIN4kyer_GURNDrp6f-311" value="Matéria-Prima" style="ellipse;shape=doubleEllipse;whiteSpace=wrap;html=1;" vertex="1" parent="FoYIN4kyer_GURNDrp6f-313">
          <mxGeometry x="70" y="55" width="116" height="60" as="geometry" />
        </mxCell>
        <mxCell id="FoYIN4kyer_GURNDrp6f-325" value="" style="group" vertex="1" connectable="0" parent="1">
          <mxGeometry x="1280" y="40" width="250" height="480" as="geometry" />
        </mxCell>
        <mxCell id="FoYIN4kyer_GURNDrp6f-326" value="" style="shape=ext;double=1;rounded=1;whiteSpace=wrap;html=1;rotation=90;" vertex="1" parent="FoYIN4kyer_GURNDrp6f-325">
          <mxGeometry x="-115" y="115" width="480" height="250" as="geometry" />
        </mxCell>
        <mxCell id="FoYIN4kyer_GURNDrp6f-327" value="" style="group" vertex="1" connectable="0" parent="FoYIN4kyer_GURNDrp6f-325">
          <mxGeometry x="15" y="160" width="220" height="160" as="geometry" />
        </mxCell>
        <mxCell id="FoYIN4kyer_GURNDrp6f-328" value="" style="shape=ext;double=1;rounded=1;whiteSpace=wrap;html=1;" vertex="1" parent="FoYIN4kyer_GURNDrp6f-327">
          <mxGeometry x="60" y="5" width="160" height="15" as="geometry" />
        </mxCell>
        <mxCell id="FoYIN4kyer_GURNDrp6f-329" value="" style="shape=ext;double=1;rounded=1;whiteSpace=wrap;html=1;" vertex="1" parent="FoYIN4kyer_GURNDrp6f-327">
          <mxGeometry x="60" y="55" width="160" height="15" as="geometry" />
        </mxCell>
        <mxCell id="FoYIN4kyer_GURNDrp6f-330" value="" style="shape=ext;double=1;rounded=1;whiteSpace=wrap;html=1;" vertex="1" parent="FoYIN4kyer_GURNDrp6f-327">
          <mxGeometry x="60" y="105" width="160" height="15" as="geometry" />
        </mxCell>
        <mxCell id="FoYIN4kyer_GURNDrp6f-331" value="&lt;span style=&quot;font-size: 12px;&quot;&gt;Tipo&lt;/span&gt;" style="text;strokeColor=none;fillColor=none;html=1;fontSize=24;fontStyle=1;verticalAlign=middle;align=center;" vertex="1" parent="FoYIN4kyer_GURNDrp6f-327">
          <mxGeometry x="12" width="60" height="20" as="geometry" />
        </mxCell>
        <mxCell id="FoYIN4kyer_GURNDrp6f-332" value="&lt;font style=&quot;font-size: 12px;&quot;&gt;Nome&lt;/font&gt;" style="text;strokeColor=none;fillColor=none;html=1;fontSize=24;fontStyle=1;verticalAlign=middle;align=center;" vertex="1" parent="FoYIN4kyer_GURNDrp6f-327">
          <mxGeometry x="10" y="50" width="60" height="20" as="geometry" />
        </mxCell>
        <mxCell id="FoYIN4kyer_GURNDrp6f-333" value="&lt;font style=&quot;font-size: 12px;&quot;&gt;Unidade&lt;/font&gt;" style="text;strokeColor=none;fillColor=none;html=1;fontSize=24;fontStyle=1;verticalAlign=middle;align=center;" vertex="1" parent="FoYIN4kyer_GURNDrp6f-327">
          <mxGeometry y="100" width="60" height="20" as="geometry" />
        </mxCell>
        <mxCell id="FoYIN4kyer_GURNDrp6f-334" value="" style="shape=ext;double=1;rounded=1;whiteSpace=wrap;html=1;" vertex="1" parent="FoYIN4kyer_GURNDrp6f-327">
          <mxGeometry x="60" y="145" width="160" height="15" as="geometry" />
        </mxCell>
        <mxCell id="FoYIN4kyer_GURNDrp6f-335" value="&lt;font style=&quot;font-size: 12px;&quot;&gt;Valor&lt;/font&gt;" style="text;strokeColor=none;fillColor=none;html=1;fontSize=24;fontStyle=1;verticalAlign=middle;align=center;" vertex="1" parent="FoYIN4kyer_GURNDrp6f-327">
          <mxGeometry x="12" y="140" width="60" height="20" as="geometry" />
        </mxCell>
        <mxCell id="FoYIN4kyer_GURNDrp6f-336" value="" style="group" vertex="1" connectable="0" parent="FoYIN4kyer_GURNDrp6f-325">
          <mxGeometry x="20" y="385" width="220" height="30" as="geometry" />
        </mxCell>
        <mxCell id="FoYIN4kyer_GURNDrp6f-337" value="Voltar" style="shape=ext;double=1;rounded=1;whiteSpace=wrap;html=1;" vertex="1" parent="FoYIN4kyer_GURNDrp6f-336">
          <mxGeometry width="64.16666666666666" height="30" as="geometry" />
        </mxCell>
        <mxCell id="FoYIN4kyer_GURNDrp6f-338" value="Continuar" style="shape=ext;double=1;rounded=1;whiteSpace=wrap;html=1;" vertex="1" parent="FoYIN4kyer_GURNDrp6f-336">
          <mxGeometry x="75.16666666666666" width="64.16666666666666" height="30" as="geometry" />
        </mxCell>
        <mxCell id="FoYIN4kyer_GURNDrp6f-339" value="Cdastrar" style="shape=ext;double=1;rounded=1;whiteSpace=wrap;html=1;" vertex="1" parent="FoYIN4kyer_GURNDrp6f-336">
          <mxGeometry x="155.83333333333331" width="64.16666666666666" height="30" as="geometry" />
        </mxCell>
        <mxCell id="FoYIN4kyer_GURNDrp6f-340" value="Matéria-Prima" style="ellipse;shape=doubleEllipse;whiteSpace=wrap;html=1;" vertex="1" parent="FoYIN4kyer_GURNDrp6f-325">
          <mxGeometry x="70" y="55" width="116" height="60" as="geometry" />
        </mxCell>
        <mxCell id="FoYIN4kyer_GURNDrp6f-316" value="" style="group" vertex="1" connectable="0" parent="FoYIN4kyer_GURNDrp6f-325">
          <mxGeometry x="29" y="190" width="202" height="100" as="geometry" />
        </mxCell>
        <mxCell id="FoYIN4kyer_GURNDrp6f-317" value="" style="shape=ext;double=1;rounded=1;whiteSpace=wrap;html=1;" vertex="1" parent="FoYIN4kyer_GURNDrp6f-316">
          <mxGeometry width="202" height="100" as="geometry" />
        </mxCell>
        <mxCell id="FoYIN4kyer_GURNDrp6f-318" value="&lt;font color=&quot;#ff3333&quot; style=&quot;font-size: 12px;&quot;&gt;Tem certeza que deseja cadastrar!&lt;/font&gt;" style="text;strokeColor=none;fillColor=none;html=1;fontSize=24;fontStyle=1;verticalAlign=middle;align=center;" vertex="1" parent="FoYIN4kyer_GURNDrp6f-316">
          <mxGeometry y="20" width="202" height="40" as="geometry" />
        </mxCell>
        <mxCell id="FoYIN4kyer_GURNDrp6f-319" value="" style="group" vertex="1" connectable="0" parent="FoYIN4kyer_GURNDrp6f-316">
          <mxGeometry x="44.888888888888886" width="112.22222222222221" height="40" as="geometry" />
        </mxCell>
        <mxCell id="FoYIN4kyer_GURNDrp6f-320" value="" style="verticalLabelPosition=bottom;verticalAlign=top;html=1;shape=mxgraph.basic.acute_triangle;dx=0.5;fillColor=#FFFF33;" vertex="1" parent="FoYIN4kyer_GURNDrp6f-319">
          <mxGeometry x="33.666666666666664" y="5" width="44.888888888888886" height="30" as="geometry" />
        </mxCell>
        <mxCell id="FoYIN4kyer_GURNDrp6f-321" value="&lt;font color=&quot;#ff3333&quot; style=&quot;font-size: 12px;&quot;&gt;!&lt;/font&gt;" style="text;strokeColor=none;fillColor=none;html=1;fontSize=24;fontStyle=1;verticalAlign=middle;align=center;" vertex="1" parent="FoYIN4kyer_GURNDrp6f-319">
          <mxGeometry width="112.22222222222221" height="40" as="geometry" />
        </mxCell>
        <mxCell id="FoYIN4kyer_GURNDrp6f-322" value="Sim" style="ellipse;shape=doubleEllipse;whiteSpace=wrap;html=1;" vertex="1" parent="FoYIN4kyer_GURNDrp6f-316">
          <mxGeometry x="33.666666666666664" y="60" width="56.11111111111111" height="30" as="geometry" />
        </mxCell>
        <mxCell id="FoYIN4kyer_GURNDrp6f-323" value="Não" style="ellipse;shape=doubleEllipse;whiteSpace=wrap;html=1;" vertex="1" parent="FoYIN4kyer_GURNDrp6f-316">
          <mxGeometry x="123.44444444444443" y="60" width="56.11111111111111" height="30" as="geometry" />
        </mxCell>
        <mxCell id="FoYIN4kyer_GURNDrp6f-363" value="" style="group" vertex="1" connectable="0" parent="1">
          <mxGeometry x="440" y="1930" width="180" height="100" as="geometry" />
        </mxCell>
        <mxCell id="FoYIN4kyer_GURNDrp6f-364" value="" style="shape=ext;double=1;rounded=1;whiteSpace=wrap;html=1;" vertex="1" parent="FoYIN4kyer_GURNDrp6f-363">
          <mxGeometry width="180" height="100" as="geometry" />
        </mxCell>
        <mxCell id="FoYIN4kyer_GURNDrp6f-365" value="&lt;font color=&quot;#ff3333&quot; style=&quot;font-size: 12px;&quot;&gt;Tem certeza que deseja voltar!&lt;/font&gt;" style="text;strokeColor=none;fillColor=none;html=1;fontSize=24;fontStyle=1;verticalAlign=middle;align=center;" vertex="1" parent="FoYIN4kyer_GURNDrp6f-363">
          <mxGeometry y="20" width="180" height="40" as="geometry" />
        </mxCell>
        <mxCell id="FoYIN4kyer_GURNDrp6f-366" value="" style="group" vertex="1" connectable="0" parent="FoYIN4kyer_GURNDrp6f-363">
          <mxGeometry x="40" width="100" height="40" as="geometry" />
        </mxCell>
        <mxCell id="FoYIN4kyer_GURNDrp6f-367" value="" style="verticalLabelPosition=bottom;verticalAlign=top;html=1;shape=mxgraph.basic.acute_triangle;dx=0.5;fillColor=#FFFF33;" vertex="1" parent="FoYIN4kyer_GURNDrp6f-366">
          <mxGeometry x="30" y="5" width="40" height="30" as="geometry" />
        </mxCell>
        <mxCell id="FoYIN4kyer_GURNDrp6f-368" value="&lt;font color=&quot;#ff3333&quot; style=&quot;font-size: 12px;&quot;&gt;!&lt;/font&gt;" style="text;strokeColor=none;fillColor=none;html=1;fontSize=24;fontStyle=1;verticalAlign=middle;align=center;" vertex="1" parent="FoYIN4kyer_GURNDrp6f-366">
          <mxGeometry width="100" height="40" as="geometry" />
        </mxCell>
        <mxCell id="FoYIN4kyer_GURNDrp6f-369" value="Sim" style="ellipse;shape=doubleEllipse;whiteSpace=wrap;html=1;" vertex="1" parent="FoYIN4kyer_GURNDrp6f-363">
          <mxGeometry x="30" y="60" width="50" height="30" as="geometry" />
        </mxCell>
        <mxCell id="FoYIN4kyer_GURNDrp6f-370" value="Não" style="ellipse;shape=doubleEllipse;whiteSpace=wrap;html=1;" vertex="1" parent="FoYIN4kyer_GURNDrp6f-363">
          <mxGeometry x="110" y="60" width="50" height="30" as="geometry" />
        </mxCell>
        <mxCell id="FoYIN4kyer_GURNDrp6f-388" value="" style="group" vertex="1" connectable="0" parent="1">
          <mxGeometry x="880" y="40" width="250" height="480" as="geometry" />
        </mxCell>
        <mxCell id="FoYIN4kyer_GURNDrp6f-372" value="" style="group" vertex="1" connectable="0" parent="FoYIN4kyer_GURNDrp6f-388">
          <mxGeometry width="250" height="480" as="geometry" />
        </mxCell>
        <mxCell id="FoYIN4kyer_GURNDrp6f-373" value="" style="shape=ext;double=1;rounded=1;whiteSpace=wrap;html=1;rotation=90;" vertex="1" parent="FoYIN4kyer_GURNDrp6f-372">
          <mxGeometry x="-114.99999999999997" y="115" width="480" height="250" as="geometry" />
        </mxCell>
        <mxCell id="FoYIN4kyer_GURNDrp6f-374" value="" style="group" vertex="1" connectable="0" parent="FoYIN4kyer_GURNDrp6f-372">
          <mxGeometry x="15.000000000000014" y="160" width="220" height="160" as="geometry" />
        </mxCell>
        <mxCell id="FoYIN4kyer_GURNDrp6f-375" value="" style="shape=ext;double=1;rounded=1;whiteSpace=wrap;html=1;" vertex="1" parent="FoYIN4kyer_GURNDrp6f-374">
          <mxGeometry x="60" y="5" width="160" height="15" as="geometry" />
        </mxCell>
        <mxCell id="FoYIN4kyer_GURNDrp6f-376" value="" style="shape=ext;double=1;rounded=1;whiteSpace=wrap;html=1;" vertex="1" parent="FoYIN4kyer_GURNDrp6f-374">
          <mxGeometry x="60" y="55" width="160" height="15" as="geometry" />
        </mxCell>
        <mxCell id="FoYIN4kyer_GURNDrp6f-377" value="" style="shape=ext;double=1;rounded=1;whiteSpace=wrap;html=1;" vertex="1" parent="FoYIN4kyer_GURNDrp6f-374">
          <mxGeometry x="60" y="105" width="160" height="15" as="geometry" />
        </mxCell>
        <mxCell id="FoYIN4kyer_GURNDrp6f-378" value="&lt;span style=&quot;font-size: 12px;&quot;&gt;Tipo&lt;/span&gt;" style="text;strokeColor=none;fillColor=none;html=1;fontSize=24;fontStyle=1;verticalAlign=middle;align=center;" vertex="1" parent="FoYIN4kyer_GURNDrp6f-374">
          <mxGeometry x="12" width="60" height="20" as="geometry" />
        </mxCell>
        <mxCell id="FoYIN4kyer_GURNDrp6f-379" value="&lt;font style=&quot;font-size: 12px;&quot;&gt;Nome&lt;/font&gt;" style="text;strokeColor=none;fillColor=none;html=1;fontSize=24;fontStyle=1;verticalAlign=middle;align=center;" vertex="1" parent="FoYIN4kyer_GURNDrp6f-374">
          <mxGeometry x="10" y="50" width="60" height="20" as="geometry" />
        </mxCell>
        <mxCell id="FoYIN4kyer_GURNDrp6f-380" value="&lt;font style=&quot;font-size: 12px;&quot;&gt;Unidade&lt;/font&gt;" style="text;strokeColor=none;fillColor=none;html=1;fontSize=24;fontStyle=1;verticalAlign=middle;align=center;" vertex="1" parent="FoYIN4kyer_GURNDrp6f-374">
          <mxGeometry y="100" width="60" height="20" as="geometry" />
        </mxCell>
        <mxCell id="FoYIN4kyer_GURNDrp6f-381" value="" style="shape=ext;double=1;rounded=1;whiteSpace=wrap;html=1;" vertex="1" parent="FoYIN4kyer_GURNDrp6f-374">
          <mxGeometry x="60" y="145" width="160" height="15" as="geometry" />
        </mxCell>
        <mxCell id="FoYIN4kyer_GURNDrp6f-382" value="&lt;font style=&quot;font-size: 12px;&quot;&gt;Valor&lt;/font&gt;" style="text;strokeColor=none;fillColor=none;html=1;fontSize=24;fontStyle=1;verticalAlign=middle;align=center;" vertex="1" parent="FoYIN4kyer_GURNDrp6f-374">
          <mxGeometry x="12" y="140" width="60" height="20" as="geometry" />
        </mxCell>
        <mxCell id="FoYIN4kyer_GURNDrp6f-383" value="" style="group" vertex="1" connectable="0" parent="FoYIN4kyer_GURNDrp6f-372">
          <mxGeometry x="20.000000000000014" y="385" width="220" height="30" as="geometry" />
        </mxCell>
        <mxCell id="FoYIN4kyer_GURNDrp6f-384" value="Voltar" style="shape=ext;double=1;rounded=1;whiteSpace=wrap;html=1;" vertex="1" parent="FoYIN4kyer_GURNDrp6f-383">
          <mxGeometry width="64.16666666666666" height="30" as="geometry" />
        </mxCell>
        <mxCell id="FoYIN4kyer_GURNDrp6f-385" value="Continuar" style="shape=ext;double=1;rounded=1;whiteSpace=wrap;html=1;" vertex="1" parent="FoYIN4kyer_GURNDrp6f-383">
          <mxGeometry x="75.16666666666666" width="64.16666666666666" height="30" as="geometry" />
        </mxCell>
        <mxCell id="FoYIN4kyer_GURNDrp6f-386" value="Cdastrar" style="shape=ext;double=1;rounded=1;whiteSpace=wrap;html=1;" vertex="1" parent="FoYIN4kyer_GURNDrp6f-383">
          <mxGeometry x="155.83333333333331" width="64.16666666666666" height="30" as="geometry" />
        </mxCell>
        <mxCell id="FoYIN4kyer_GURNDrp6f-387" value="Matéria-Prima" style="ellipse;shape=doubleEllipse;whiteSpace=wrap;html=1;" vertex="1" parent="FoYIN4kyer_GURNDrp6f-372">
          <mxGeometry x="70.00000000000001" y="55" width="116" height="60" as="geometry" />
        </mxCell>
        <mxCell id="FoYIN4kyer_GURNDrp6f-355" value="" style="group" vertex="1" connectable="0" parent="FoYIN4kyer_GURNDrp6f-388">
          <mxGeometry x="40" y="210" width="190" height="100" as="geometry" />
        </mxCell>
        <mxCell id="FoYIN4kyer_GURNDrp6f-356" value="" style="shape=ext;double=1;rounded=1;whiteSpace=wrap;html=1;" vertex="1" parent="FoYIN4kyer_GURNDrp6f-355">
          <mxGeometry width="190" height="100" as="geometry" />
        </mxCell>
        <mxCell id="FoYIN4kyer_GURNDrp6f-357" value="&lt;font color=&quot;#ff3333&quot; style=&quot;font-size: 11px;&quot;&gt;Tem certeza que deseja continuar!&lt;/font&gt;" style="text;strokeColor=none;fillColor=none;html=1;fontSize=24;fontStyle=1;verticalAlign=middle;align=center;" vertex="1" parent="FoYIN4kyer_GURNDrp6f-355">
          <mxGeometry y="20" width="190" height="40" as="geometry" />
        </mxCell>
        <mxCell id="FoYIN4kyer_GURNDrp6f-358" value="" style="group" vertex="1" connectable="0" parent="FoYIN4kyer_GURNDrp6f-355">
          <mxGeometry x="42.22222222222222" width="105.55555555555556" height="40" as="geometry" />
        </mxCell>
        <mxCell id="FoYIN4kyer_GURNDrp6f-359" value="" style="verticalLabelPosition=bottom;verticalAlign=top;html=1;shape=mxgraph.basic.acute_triangle;dx=0.5;fillColor=#FFFF33;" vertex="1" parent="FoYIN4kyer_GURNDrp6f-358">
          <mxGeometry x="31.666666666666668" y="5" width="42.22222222222222" height="30" as="geometry" />
        </mxCell>
        <mxCell id="FoYIN4kyer_GURNDrp6f-360" value="&lt;font color=&quot;#ff3333&quot; style=&quot;font-size: 12px;&quot;&gt;!&lt;/font&gt;" style="text;strokeColor=none;fillColor=none;html=1;fontSize=24;fontStyle=1;verticalAlign=middle;align=center;" vertex="1" parent="FoYIN4kyer_GURNDrp6f-358">
          <mxGeometry width="105.55555555555556" height="40" as="geometry" />
        </mxCell>
        <mxCell id="FoYIN4kyer_GURNDrp6f-361" value="Sim" style="ellipse;shape=doubleEllipse;whiteSpace=wrap;html=1;" vertex="1" parent="FoYIN4kyer_GURNDrp6f-355">
          <mxGeometry x="31.666666666666668" y="60" width="52.77777777777778" height="30" as="geometry" />
        </mxCell>
        <mxCell id="FoYIN4kyer_GURNDrp6f-362" value="Não" style="ellipse;shape=doubleEllipse;whiteSpace=wrap;html=1;" vertex="1" parent="FoYIN4kyer_GURNDrp6f-355">
          <mxGeometry x="116.11111111111111" y="60" width="52.77777777777778" height="30" as="geometry" />
        </mxCell>
        <mxCell id="FoYIN4kyer_GURNDrp6f-391" value="" style="group" vertex="1" connectable="0" parent="1">
          <mxGeometry x="880" y="560" width="250" height="480" as="geometry" />
        </mxCell>
        <mxCell id="FoYIN4kyer_GURNDrp6f-392" value="" style="shape=ext;double=1;rounded=1;whiteSpace=wrap;html=1;rotation=90;" vertex="1" parent="FoYIN4kyer_GURNDrp6f-391">
          <mxGeometry x="-114.99999999999997" y="115" width="480" height="250" as="geometry" />
        </mxCell>
        <mxCell id="FoYIN4kyer_GURNDrp6f-393" value="" style="group" vertex="1" connectable="0" parent="FoYIN4kyer_GURNDrp6f-391">
          <mxGeometry x="15.000000000000014" y="160" width="220" height="160" as="geometry" />
        </mxCell>
        <mxCell id="FoYIN4kyer_GURNDrp6f-394" value="" style="shape=ext;double=1;rounded=1;whiteSpace=wrap;html=1;" vertex="1" parent="FoYIN4kyer_GURNDrp6f-393">
          <mxGeometry x="60" y="5" width="160" height="15" as="geometry" />
        </mxCell>
        <mxCell id="FoYIN4kyer_GURNDrp6f-395" value="" style="shape=ext;double=1;rounded=1;whiteSpace=wrap;html=1;" vertex="1" parent="FoYIN4kyer_GURNDrp6f-393">
          <mxGeometry x="60" y="55" width="160" height="15" as="geometry" />
        </mxCell>
        <mxCell id="FoYIN4kyer_GURNDrp6f-396" value="" style="shape=ext;double=1;rounded=1;whiteSpace=wrap;html=1;" vertex="1" parent="FoYIN4kyer_GURNDrp6f-393">
          <mxGeometry x="60" y="105" width="160" height="15" as="geometry" />
        </mxCell>
        <mxCell id="FoYIN4kyer_GURNDrp6f-397" value="&lt;span style=&quot;font-size: 12px;&quot;&gt;Tipo&lt;/span&gt;" style="text;strokeColor=none;fillColor=none;html=1;fontSize=24;fontStyle=1;verticalAlign=middle;align=center;" vertex="1" parent="FoYIN4kyer_GURNDrp6f-393">
          <mxGeometry x="12" width="60" height="20" as="geometry" />
        </mxCell>
        <mxCell id="FoYIN4kyer_GURNDrp6f-398" value="&lt;font style=&quot;font-size: 12px;&quot;&gt;Nome&lt;/font&gt;" style="text;strokeColor=none;fillColor=none;html=1;fontSize=24;fontStyle=1;verticalAlign=middle;align=center;" vertex="1" parent="FoYIN4kyer_GURNDrp6f-393">
          <mxGeometry x="10" y="50" width="60" height="20" as="geometry" />
        </mxCell>
        <mxCell id="FoYIN4kyer_GURNDrp6f-399" value="&lt;font style=&quot;font-size: 12px;&quot;&gt;Unidade&lt;/font&gt;" style="text;strokeColor=none;fillColor=none;html=1;fontSize=24;fontStyle=1;verticalAlign=middle;align=center;" vertex="1" parent="FoYIN4kyer_GURNDrp6f-393">
          <mxGeometry y="100" width="60" height="20" as="geometry" />
        </mxCell>
        <mxCell id="FoYIN4kyer_GURNDrp6f-400" value="" style="shape=ext;double=1;rounded=1;whiteSpace=wrap;html=1;" vertex="1" parent="FoYIN4kyer_GURNDrp6f-393">
          <mxGeometry x="60" y="145" width="160" height="15" as="geometry" />
        </mxCell>
        <mxCell id="FoYIN4kyer_GURNDrp6f-401" value="&lt;font style=&quot;font-size: 12px;&quot;&gt;Valor&lt;/font&gt;" style="text;strokeColor=none;fillColor=none;html=1;fontSize=24;fontStyle=1;verticalAlign=middle;align=center;" vertex="1" parent="FoYIN4kyer_GURNDrp6f-393">
          <mxGeometry x="12" y="140" width="60" height="20" as="geometry" />
        </mxCell>
        <mxCell id="FoYIN4kyer_GURNDrp6f-410" value="&lt;font color=&quot;#ff3333&quot; style=&quot;font-size: 11px;&quot;&gt;Clique para atualizar!&lt;/font&gt;" style="text;strokeColor=none;fillColor=none;html=1;fontSize=24;fontStyle=1;verticalAlign=middle;align=center;" vertex="1" parent="FoYIN4kyer_GURNDrp6f-393">
          <mxGeometry x="70" width="130" height="20" as="geometry" />
        </mxCell>
        <mxCell id="FoYIN4kyer_GURNDrp6f-409" value="&lt;font color=&quot;#ff3333&quot; style=&quot;font-size: 11px;&quot;&gt;Clique para atualizar!&lt;/font&gt;" style="text;strokeColor=none;fillColor=none;html=1;fontSize=24;fontStyle=1;verticalAlign=middle;align=center;" vertex="1" parent="FoYIN4kyer_GURNDrp6f-393">
          <mxGeometry x="75" y="50" width="130" height="20" as="geometry" />
        </mxCell>
        <mxCell id="FoYIN4kyer_GURNDrp6f-408" value="&lt;font color=&quot;#ff3333&quot; style=&quot;font-size: 11px;&quot;&gt;Clique para atualizar!&lt;/font&gt;" style="text;strokeColor=none;fillColor=none;html=1;fontSize=24;fontStyle=1;verticalAlign=middle;align=center;" vertex="1" parent="FoYIN4kyer_GURNDrp6f-393">
          <mxGeometry x="72" y="100" width="130" height="20" as="geometry" />
        </mxCell>
        <mxCell id="FoYIN4kyer_GURNDrp6f-407" value="&lt;font color=&quot;#ff3333&quot; style=&quot;font-size: 11px;&quot;&gt;Clique para atualizar!&lt;/font&gt;" style="text;strokeColor=none;fillColor=none;html=1;fontSize=24;fontStyle=1;verticalAlign=middle;align=center;" vertex="1" parent="FoYIN4kyer_GURNDrp6f-393">
          <mxGeometry x="65" y="140" width="130" height="20" as="geometry" />
        </mxCell>
        <mxCell id="FoYIN4kyer_GURNDrp6f-402" value="" style="group" vertex="1" connectable="0" parent="FoYIN4kyer_GURNDrp6f-391">
          <mxGeometry x="20.000000000000014" y="385" width="220" height="30" as="geometry" />
        </mxCell>
        <mxCell id="FoYIN4kyer_GURNDrp6f-403" value="Voltar" style="shape=ext;double=1;rounded=1;whiteSpace=wrap;html=1;" vertex="1" parent="FoYIN4kyer_GURNDrp6f-402">
          <mxGeometry width="64.16666666666666" height="30" as="geometry" />
        </mxCell>
        <mxCell id="FoYIN4kyer_GURNDrp6f-404" value="Continuar" style="shape=ext;double=1;rounded=1;whiteSpace=wrap;html=1;" vertex="1" parent="FoYIN4kyer_GURNDrp6f-402">
          <mxGeometry x="75.16666666666666" width="64.16666666666666" height="30" as="geometry" />
        </mxCell>
        <mxCell id="FoYIN4kyer_GURNDrp6f-405" value="Cdastrar" style="shape=ext;double=1;rounded=1;whiteSpace=wrap;html=1;" vertex="1" parent="FoYIN4kyer_GURNDrp6f-402">
          <mxGeometry x="155.83333333333331" width="64.16666666666666" height="30" as="geometry" />
        </mxCell>
        <mxCell id="FoYIN4kyer_GURNDrp6f-406" value="Matéria-Prima" style="ellipse;shape=doubleEllipse;whiteSpace=wrap;html=1;" vertex="1" parent="FoYIN4kyer_GURNDrp6f-391">
          <mxGeometry x="70.00000000000001" y="55" width="116" height="60" as="geometry" />
        </mxCell>
        <mxCell id="FoYIN4kyer_GURNDrp6f-414" value="" style="group" vertex="1" connectable="0" parent="1">
          <mxGeometry x="1280" y="560" width="250" height="480" as="geometry" />
        </mxCell>
        <mxCell id="FoYIN4kyer_GURNDrp6f-415" value="" style="shape=ext;double=1;rounded=1;whiteSpace=wrap;html=1;rotation=90;" vertex="1" parent="FoYIN4kyer_GURNDrp6f-414">
          <mxGeometry x="-114.99999999999997" y="115" width="480" height="250" as="geometry" />
        </mxCell>
        <mxCell id="FoYIN4kyer_GURNDrp6f-416" value="" style="group" vertex="1" connectable="0" parent="FoYIN4kyer_GURNDrp6f-414">
          <mxGeometry x="15.000000000000014" y="160" width="220" height="160" as="geometry" />
        </mxCell>
        <mxCell id="FoYIN4kyer_GURNDrp6f-417" value="" style="shape=ext;double=1;rounded=1;whiteSpace=wrap;html=1;" vertex="1" parent="FoYIN4kyer_GURNDrp6f-416">
          <mxGeometry x="60" y="5" width="160" height="15" as="geometry" />
        </mxCell>
        <mxCell id="FoYIN4kyer_GURNDrp6f-418" value="" style="shape=ext;double=1;rounded=1;whiteSpace=wrap;html=1;" vertex="1" parent="FoYIN4kyer_GURNDrp6f-416">
          <mxGeometry x="60" y="55" width="160" height="15" as="geometry" />
        </mxCell>
        <mxCell id="FoYIN4kyer_GURNDrp6f-419" value="" style="shape=ext;double=1;rounded=1;whiteSpace=wrap;html=1;" vertex="1" parent="FoYIN4kyer_GURNDrp6f-416">
          <mxGeometry x="60" y="105" width="160" height="15" as="geometry" />
        </mxCell>
        <mxCell id="FoYIN4kyer_GURNDrp6f-420" value="&lt;span style=&quot;font-size: 12px;&quot;&gt;Tipo&lt;/span&gt;" style="text;strokeColor=none;fillColor=none;html=1;fontSize=24;fontStyle=1;verticalAlign=middle;align=center;" vertex="1" parent="FoYIN4kyer_GURNDrp6f-416">
          <mxGeometry x="12" width="60" height="20" as="geometry" />
        </mxCell>
        <mxCell id="FoYIN4kyer_GURNDrp6f-421" value="&lt;font style=&quot;font-size: 12px;&quot;&gt;Nome&lt;/font&gt;" style="text;strokeColor=none;fillColor=none;html=1;fontSize=24;fontStyle=1;verticalAlign=middle;align=center;" vertex="1" parent="FoYIN4kyer_GURNDrp6f-416">
          <mxGeometry x="10" y="50" width="60" height="20" as="geometry" />
        </mxCell>
        <mxCell id="FoYIN4kyer_GURNDrp6f-422" value="&lt;font style=&quot;font-size: 12px;&quot;&gt;Unidade&lt;/font&gt;" style="text;strokeColor=none;fillColor=none;html=1;fontSize=24;fontStyle=1;verticalAlign=middle;align=center;" vertex="1" parent="FoYIN4kyer_GURNDrp6f-416">
          <mxGeometry y="100" width="60" height="20" as="geometry" />
        </mxCell>
        <mxCell id="FoYIN4kyer_GURNDrp6f-423" value="" style="shape=ext;double=1;rounded=1;whiteSpace=wrap;html=1;" vertex="1" parent="FoYIN4kyer_GURNDrp6f-416">
          <mxGeometry x="60" y="145" width="160" height="15" as="geometry" />
        </mxCell>
        <mxCell id="FoYIN4kyer_GURNDrp6f-424" value="&lt;font style=&quot;font-size: 12px;&quot;&gt;Valor&lt;/font&gt;" style="text;strokeColor=none;fillColor=none;html=1;fontSize=24;fontStyle=1;verticalAlign=middle;align=center;" vertex="1" parent="FoYIN4kyer_GURNDrp6f-416">
          <mxGeometry x="12" y="140" width="60" height="20" as="geometry" />
        </mxCell>
        <mxCell id="FoYIN4kyer_GURNDrp6f-425" value="&lt;font color=&quot;#ff3333&quot; style=&quot;font-size: 11px;&quot;&gt;Clique para atualizar!&lt;/font&gt;" style="text;strokeColor=none;fillColor=none;html=1;fontSize=24;fontStyle=1;verticalAlign=middle;align=center;" vertex="1" parent="FoYIN4kyer_GURNDrp6f-416">
          <mxGeometry x="70" width="130" height="20" as="geometry" />
        </mxCell>
        <mxCell id="FoYIN4kyer_GURNDrp6f-426" value="&lt;font color=&quot;#ff3333&quot; style=&quot;font-size: 11px;&quot;&gt;Clique para atualizar!&lt;/font&gt;" style="text;strokeColor=none;fillColor=none;html=1;fontSize=24;fontStyle=1;verticalAlign=middle;align=center;" vertex="1" parent="FoYIN4kyer_GURNDrp6f-416">
          <mxGeometry x="75" y="50" width="130" height="20" as="geometry" />
        </mxCell>
        <mxCell id="FoYIN4kyer_GURNDrp6f-427" value="&lt;font color=&quot;#ff3333&quot; style=&quot;font-size: 11px;&quot;&gt;Clique para atualizar!&lt;/font&gt;" style="text;strokeColor=none;fillColor=none;html=1;fontSize=24;fontStyle=1;verticalAlign=middle;align=center;" vertex="1" parent="FoYIN4kyer_GURNDrp6f-416">
          <mxGeometry x="72" y="100" width="130" height="20" as="geometry" />
        </mxCell>
        <mxCell id="FoYIN4kyer_GURNDrp6f-428" value="&lt;font color=&quot;#ff3333&quot; style=&quot;font-size: 11px;&quot;&gt;Clique para atualizar!&lt;/font&gt;" style="text;strokeColor=none;fillColor=none;html=1;fontSize=24;fontStyle=1;verticalAlign=middle;align=center;" vertex="1" parent="FoYIN4kyer_GURNDrp6f-416">
          <mxGeometry x="65" y="140" width="130" height="20" as="geometry" />
        </mxCell>
        <mxCell id="FoYIN4kyer_GURNDrp6f-429" value="" style="group" vertex="1" connectable="0" parent="FoYIN4kyer_GURNDrp6f-414">
          <mxGeometry x="20.000000000000014" y="385" width="220" height="30" as="geometry" />
        </mxCell>
        <mxCell id="FoYIN4kyer_GURNDrp6f-430" value="Voltar" style="shape=ext;double=1;rounded=1;whiteSpace=wrap;html=1;" vertex="1" parent="FoYIN4kyer_GURNDrp6f-429">
          <mxGeometry width="64.16666666666666" height="30" as="geometry" />
        </mxCell>
        <mxCell id="FoYIN4kyer_GURNDrp6f-431" value="Continuar" style="shape=ext;double=1;rounded=1;whiteSpace=wrap;html=1;" vertex="1" parent="FoYIN4kyer_GURNDrp6f-429">
          <mxGeometry x="75.16666666666666" width="64.16666666666666" height="30" as="geometry" />
        </mxCell>
        <mxCell id="FoYIN4kyer_GURNDrp6f-432" value="Cdastrar" style="shape=ext;double=1;rounded=1;whiteSpace=wrap;html=1;" vertex="1" parent="FoYIN4kyer_GURNDrp6f-429">
          <mxGeometry x="155.83333333333331" width="64.16666666666666" height="30" as="geometry" />
        </mxCell>
        <mxCell id="FoYIN4kyer_GURNDrp6f-433" value="Matéria-Prima" style="ellipse;shape=doubleEllipse;whiteSpace=wrap;html=1;" vertex="1" parent="FoYIN4kyer_GURNDrp6f-414">
          <mxGeometry x="70.00000000000001" y="55" width="116" height="60" as="geometry" />
        </mxCell>
        <mxCell id="FoYIN4kyer_GURNDrp6f-434" value="" style="group" vertex="1" connectable="0" parent="1">
          <mxGeometry x="880" y="1200" width="250" height="480" as="geometry" />
        </mxCell>
        <mxCell id="FoYIN4kyer_GURNDrp6f-435" value="" style="shape=ext;double=1;rounded=1;whiteSpace=wrap;html=1;rotation=90;" vertex="1" parent="FoYIN4kyer_GURNDrp6f-434">
          <mxGeometry x="-114.99999999999997" y="115" width="480" height="250" as="geometry" />
        </mxCell>
        <mxCell id="FoYIN4kyer_GURNDrp6f-436" value="" style="group" vertex="1" connectable="0" parent="FoYIN4kyer_GURNDrp6f-434">
          <mxGeometry x="15.000000000000014" y="160" width="220" height="160" as="geometry" />
        </mxCell>
        <mxCell id="FoYIN4kyer_GURNDrp6f-437" value="" style="shape=ext;double=1;rounded=1;whiteSpace=wrap;html=1;" vertex="1" parent="FoYIN4kyer_GURNDrp6f-436">
          <mxGeometry x="60" y="5" width="160" height="15" as="geometry" />
        </mxCell>
        <mxCell id="FoYIN4kyer_GURNDrp6f-438" value="" style="shape=ext;double=1;rounded=1;whiteSpace=wrap;html=1;" vertex="1" parent="FoYIN4kyer_GURNDrp6f-436">
          <mxGeometry x="60" y="55" width="160" height="15" as="geometry" />
        </mxCell>
        <mxCell id="FoYIN4kyer_GURNDrp6f-439" value="" style="shape=ext;double=1;rounded=1;whiteSpace=wrap;html=1;" vertex="1" parent="FoYIN4kyer_GURNDrp6f-436">
          <mxGeometry x="60" y="105" width="160" height="15" as="geometry" />
        </mxCell>
        <mxCell id="FoYIN4kyer_GURNDrp6f-440" value="&lt;span style=&quot;font-size: 12px;&quot;&gt;Tipo&lt;/span&gt;" style="text;strokeColor=none;fillColor=none;html=1;fontSize=24;fontStyle=1;verticalAlign=middle;align=center;" vertex="1" parent="FoYIN4kyer_GURNDrp6f-436">
          <mxGeometry x="12" width="60" height="20" as="geometry" />
        </mxCell>
        <mxCell id="FoYIN4kyer_GURNDrp6f-441" value="&lt;font style=&quot;font-size: 12px;&quot;&gt;Nome&lt;/font&gt;" style="text;strokeColor=none;fillColor=none;html=1;fontSize=24;fontStyle=1;verticalAlign=middle;align=center;" vertex="1" parent="FoYIN4kyer_GURNDrp6f-436">
          <mxGeometry x="10" y="50" width="60" height="20" as="geometry" />
        </mxCell>
        <mxCell id="FoYIN4kyer_GURNDrp6f-442" value="&lt;font style=&quot;font-size: 12px;&quot;&gt;Unidade&lt;/font&gt;" style="text;strokeColor=none;fillColor=none;html=1;fontSize=24;fontStyle=1;verticalAlign=middle;align=center;" vertex="1" parent="FoYIN4kyer_GURNDrp6f-436">
          <mxGeometry y="100" width="60" height="20" as="geometry" />
        </mxCell>
        <mxCell id="FoYIN4kyer_GURNDrp6f-443" value="" style="shape=ext;double=1;rounded=1;whiteSpace=wrap;html=1;" vertex="1" parent="FoYIN4kyer_GURNDrp6f-436">
          <mxGeometry x="60" y="145" width="160" height="15" as="geometry" />
        </mxCell>
        <mxCell id="FoYIN4kyer_GURNDrp6f-444" value="&lt;font style=&quot;font-size: 12px;&quot;&gt;Valor&lt;/font&gt;" style="text;strokeColor=none;fillColor=none;html=1;fontSize=24;fontStyle=1;verticalAlign=middle;align=center;" vertex="1" parent="FoYIN4kyer_GURNDrp6f-436">
          <mxGeometry x="12" y="140" width="60" height="20" as="geometry" />
        </mxCell>
        <mxCell id="FoYIN4kyer_GURNDrp6f-445" value="&lt;font color=&quot;#ff3333&quot; style=&quot;font-size: 11px;&quot;&gt;Clique para atualizar!&lt;/font&gt;" style="text;strokeColor=none;fillColor=none;html=1;fontSize=24;fontStyle=1;verticalAlign=middle;align=center;" vertex="1" parent="FoYIN4kyer_GURNDrp6f-436">
          <mxGeometry x="70" width="130" height="20" as="geometry" />
        </mxCell>
        <mxCell id="FoYIN4kyer_GURNDrp6f-446" value="&lt;font color=&quot;#ff3333&quot; style=&quot;font-size: 11px;&quot;&gt;Clique para atualizar!&lt;/font&gt;" style="text;strokeColor=none;fillColor=none;html=1;fontSize=24;fontStyle=1;verticalAlign=middle;align=center;" vertex="1" parent="FoYIN4kyer_GURNDrp6f-436">
          <mxGeometry x="75" y="50" width="130" height="20" as="geometry" />
        </mxCell>
        <mxCell id="FoYIN4kyer_GURNDrp6f-447" value="&lt;font color=&quot;#ff3333&quot; style=&quot;font-size: 11px;&quot;&gt;Clique para atualizar!&lt;/font&gt;" style="text;strokeColor=none;fillColor=none;html=1;fontSize=24;fontStyle=1;verticalAlign=middle;align=center;" vertex="1" parent="FoYIN4kyer_GURNDrp6f-436">
          <mxGeometry x="72" y="100" width="130" height="20" as="geometry" />
        </mxCell>
        <mxCell id="FoYIN4kyer_GURNDrp6f-448" value="&lt;font color=&quot;#ff3333&quot; style=&quot;font-size: 11px;&quot;&gt;Clique para atualizar!&lt;/font&gt;" style="text;strokeColor=none;fillColor=none;html=1;fontSize=24;fontStyle=1;verticalAlign=middle;align=center;" vertex="1" parent="FoYIN4kyer_GURNDrp6f-436">
          <mxGeometry x="65" y="140" width="130" height="20" as="geometry" />
        </mxCell>
        <mxCell id="FoYIN4kyer_GURNDrp6f-474" value="" style="group" vertex="1" connectable="0" parent="FoYIN4kyer_GURNDrp6f-436">
          <mxGeometry x="25" y="40" width="190" height="100" as="geometry" />
        </mxCell>
        <mxCell id="FoYIN4kyer_GURNDrp6f-475" value="" style="shape=ext;double=1;rounded=1;whiteSpace=wrap;html=1;" vertex="1" parent="FoYIN4kyer_GURNDrp6f-474">
          <mxGeometry width="190" height="100" as="geometry" />
        </mxCell>
        <mxCell id="FoYIN4kyer_GURNDrp6f-476" value="&lt;font color=&quot;#ff3333&quot; style=&quot;font-size: 11px;&quot;&gt;Tem certeza que deseja continuar!&lt;/font&gt;" style="text;strokeColor=none;fillColor=none;html=1;fontSize=24;fontStyle=1;verticalAlign=middle;align=center;" vertex="1" parent="FoYIN4kyer_GURNDrp6f-474">
          <mxGeometry y="20" width="190" height="40" as="geometry" />
        </mxCell>
        <mxCell id="FoYIN4kyer_GURNDrp6f-477" value="" style="group" vertex="1" connectable="0" parent="FoYIN4kyer_GURNDrp6f-474">
          <mxGeometry x="42.22222222222222" width="105.55555555555556" height="40" as="geometry" />
        </mxCell>
        <mxCell id="FoYIN4kyer_GURNDrp6f-478" value="" style="verticalLabelPosition=bottom;verticalAlign=top;html=1;shape=mxgraph.basic.acute_triangle;dx=0.5;fillColor=#FFFF33;" vertex="1" parent="FoYIN4kyer_GURNDrp6f-477">
          <mxGeometry x="31.666666666666668" y="5" width="42.22222222222222" height="30" as="geometry" />
        </mxCell>
        <mxCell id="FoYIN4kyer_GURNDrp6f-479" value="&lt;font color=&quot;#ff3333&quot; style=&quot;font-size: 12px;&quot;&gt;!&lt;/font&gt;" style="text;strokeColor=none;fillColor=none;html=1;fontSize=24;fontStyle=1;verticalAlign=middle;align=center;" vertex="1" parent="FoYIN4kyer_GURNDrp6f-477">
          <mxGeometry width="105.55555555555556" height="40" as="geometry" />
        </mxCell>
        <mxCell id="FoYIN4kyer_GURNDrp6f-480" value="Sim" style="ellipse;shape=doubleEllipse;whiteSpace=wrap;html=1;" vertex="1" parent="FoYIN4kyer_GURNDrp6f-474">
          <mxGeometry x="31.666666666666668" y="60" width="52.77777777777778" height="30" as="geometry" />
        </mxCell>
        <mxCell id="FoYIN4kyer_GURNDrp6f-481" value="Não" style="ellipse;shape=doubleEllipse;whiteSpace=wrap;html=1;" vertex="1" parent="FoYIN4kyer_GURNDrp6f-474">
          <mxGeometry x="116.11111111111111" y="60" width="52.77777777777778" height="30" as="geometry" />
        </mxCell>
        <mxCell id="FoYIN4kyer_GURNDrp6f-449" value="" style="group" vertex="1" connectable="0" parent="FoYIN4kyer_GURNDrp6f-434">
          <mxGeometry x="20.000000000000014" y="385" width="220" height="30" as="geometry" />
        </mxCell>
        <mxCell id="FoYIN4kyer_GURNDrp6f-450" value="Voltar" style="shape=ext;double=1;rounded=1;whiteSpace=wrap;html=1;" vertex="1" parent="FoYIN4kyer_GURNDrp6f-449">
          <mxGeometry width="64.16666666666666" height="30" as="geometry" />
        </mxCell>
        <mxCell id="FoYIN4kyer_GURNDrp6f-451" value="Continuar" style="shape=ext;double=1;rounded=1;whiteSpace=wrap;html=1;" vertex="1" parent="FoYIN4kyer_GURNDrp6f-449">
          <mxGeometry x="75.16666666666666" width="64.16666666666666" height="30" as="geometry" />
        </mxCell>
        <mxCell id="FoYIN4kyer_GURNDrp6f-452" value="Cdastrar" style="shape=ext;double=1;rounded=1;whiteSpace=wrap;html=1;" vertex="1" parent="FoYIN4kyer_GURNDrp6f-449">
          <mxGeometry x="155.83333333333331" width="64.16666666666666" height="30" as="geometry" />
        </mxCell>
        <mxCell id="FoYIN4kyer_GURNDrp6f-453" value="Matéria-Prima" style="ellipse;shape=doubleEllipse;whiteSpace=wrap;html=1;" vertex="1" parent="FoYIN4kyer_GURNDrp6f-434">
          <mxGeometry x="70.00000000000001" y="55" width="116" height="60" as="geometry" />
        </mxCell>
        <mxCell id="FoYIN4kyer_GURNDrp6f-454" value="" style="group" vertex="1" connectable="0" parent="1">
          <mxGeometry x="1280" y="1200" width="250" height="480" as="geometry" />
        </mxCell>
        <mxCell id="FoYIN4kyer_GURNDrp6f-455" value="" style="shape=ext;double=1;rounded=1;whiteSpace=wrap;html=1;rotation=90;" vertex="1" parent="FoYIN4kyer_GURNDrp6f-454">
          <mxGeometry x="-114.99999999999997" y="115" width="480" height="250" as="geometry" />
        </mxCell>
        <mxCell id="FoYIN4kyer_GURNDrp6f-456" value="" style="group" vertex="1" connectable="0" parent="FoYIN4kyer_GURNDrp6f-454">
          <mxGeometry x="15.000000000000014" y="160" width="220" height="160" as="geometry" />
        </mxCell>
        <mxCell id="FoYIN4kyer_GURNDrp6f-457" value="" style="shape=ext;double=1;rounded=1;whiteSpace=wrap;html=1;" vertex="1" parent="FoYIN4kyer_GURNDrp6f-456">
          <mxGeometry x="60" y="5" width="160" height="15" as="geometry" />
        </mxCell>
        <mxCell id="FoYIN4kyer_GURNDrp6f-458" value="" style="shape=ext;double=1;rounded=1;whiteSpace=wrap;html=1;" vertex="1" parent="FoYIN4kyer_GURNDrp6f-456">
          <mxGeometry x="60" y="55" width="160" height="15" as="geometry" />
        </mxCell>
        <mxCell id="FoYIN4kyer_GURNDrp6f-459" value="" style="shape=ext;double=1;rounded=1;whiteSpace=wrap;html=1;" vertex="1" parent="FoYIN4kyer_GURNDrp6f-456">
          <mxGeometry x="60" y="105" width="160" height="15" as="geometry" />
        </mxCell>
        <mxCell id="FoYIN4kyer_GURNDrp6f-460" value="&lt;span style=&quot;font-size: 12px;&quot;&gt;Tipo&lt;/span&gt;" style="text;strokeColor=none;fillColor=none;html=1;fontSize=24;fontStyle=1;verticalAlign=middle;align=center;" vertex="1" parent="FoYIN4kyer_GURNDrp6f-456">
          <mxGeometry x="12" width="60" height="20" as="geometry" />
        </mxCell>
        <mxCell id="FoYIN4kyer_GURNDrp6f-461" value="&lt;font style=&quot;font-size: 12px;&quot;&gt;Nome&lt;/font&gt;" style="text;strokeColor=none;fillColor=none;html=1;fontSize=24;fontStyle=1;verticalAlign=middle;align=center;" vertex="1" parent="FoYIN4kyer_GURNDrp6f-456">
          <mxGeometry x="10" y="50" width="60" height="20" as="geometry" />
        </mxCell>
        <mxCell id="FoYIN4kyer_GURNDrp6f-462" value="&lt;font style=&quot;font-size: 12px;&quot;&gt;Unidade&lt;/font&gt;" style="text;strokeColor=none;fillColor=none;html=1;fontSize=24;fontStyle=1;verticalAlign=middle;align=center;" vertex="1" parent="FoYIN4kyer_GURNDrp6f-456">
          <mxGeometry y="100" width="60" height="20" as="geometry" />
        </mxCell>
        <mxCell id="FoYIN4kyer_GURNDrp6f-463" value="" style="shape=ext;double=1;rounded=1;whiteSpace=wrap;html=1;" vertex="1" parent="FoYIN4kyer_GURNDrp6f-456">
          <mxGeometry x="60" y="145" width="160" height="15" as="geometry" />
        </mxCell>
        <mxCell id="FoYIN4kyer_GURNDrp6f-464" value="&lt;font style=&quot;font-size: 12px;&quot;&gt;Valor&lt;/font&gt;" style="text;strokeColor=none;fillColor=none;html=1;fontSize=24;fontStyle=1;verticalAlign=middle;align=center;" vertex="1" parent="FoYIN4kyer_GURNDrp6f-456">
          <mxGeometry x="12" y="140" width="60" height="20" as="geometry" />
        </mxCell>
        <mxCell id="FoYIN4kyer_GURNDrp6f-465" value="&lt;font color=&quot;#ff3333&quot; style=&quot;font-size: 11px;&quot;&gt;Clique para atualizar!&lt;/font&gt;" style="text;strokeColor=none;fillColor=none;html=1;fontSize=24;fontStyle=1;verticalAlign=middle;align=center;" vertex="1" parent="FoYIN4kyer_GURNDrp6f-456">
          <mxGeometry x="70" width="130" height="20" as="geometry" />
        </mxCell>
        <mxCell id="FoYIN4kyer_GURNDrp6f-466" value="&lt;font color=&quot;#ff3333&quot; style=&quot;font-size: 11px;&quot;&gt;Clique para atualizar!&lt;/font&gt;" style="text;strokeColor=none;fillColor=none;html=1;fontSize=24;fontStyle=1;verticalAlign=middle;align=center;" vertex="1" parent="FoYIN4kyer_GURNDrp6f-456">
          <mxGeometry x="75" y="50" width="130" height="20" as="geometry" />
        </mxCell>
        <mxCell id="FoYIN4kyer_GURNDrp6f-467" value="&lt;font color=&quot;#ff3333&quot; style=&quot;font-size: 11px;&quot;&gt;Clique para atualizar!&lt;/font&gt;" style="text;strokeColor=none;fillColor=none;html=1;fontSize=24;fontStyle=1;verticalAlign=middle;align=center;" vertex="1" parent="FoYIN4kyer_GURNDrp6f-456">
          <mxGeometry x="72" y="100" width="130" height="20" as="geometry" />
        </mxCell>
        <mxCell id="FoYIN4kyer_GURNDrp6f-468" value="&lt;font color=&quot;#ff3333&quot; style=&quot;font-size: 11px;&quot;&gt;Clique para atualizar!&lt;/font&gt;" style="text;strokeColor=none;fillColor=none;html=1;fontSize=24;fontStyle=1;verticalAlign=middle;align=center;" vertex="1" parent="FoYIN4kyer_GURNDrp6f-456">
          <mxGeometry x="65" y="140" width="130" height="20" as="geometry" />
        </mxCell>
        <mxCell id="FoYIN4kyer_GURNDrp6f-492" value="" style="group" vertex="1" connectable="0" parent="FoYIN4kyer_GURNDrp6f-456">
          <mxGeometry x="9" y="40" width="202" height="100" as="geometry" />
        </mxCell>
        <mxCell id="FoYIN4kyer_GURNDrp6f-493" value="" style="shape=ext;double=1;rounded=1;whiteSpace=wrap;html=1;" vertex="1" parent="FoYIN4kyer_GURNDrp6f-492">
          <mxGeometry width="202" height="100" as="geometry" />
        </mxCell>
        <mxCell id="FoYIN4kyer_GURNDrp6f-494" value="&lt;font color=&quot;#ff3333&quot; style=&quot;font-size: 12px;&quot;&gt;Tem certeza que deseja cadastrar!&lt;/font&gt;" style="text;strokeColor=none;fillColor=none;html=1;fontSize=24;fontStyle=1;verticalAlign=middle;align=center;" vertex="1" parent="FoYIN4kyer_GURNDrp6f-492">
          <mxGeometry y="20" width="202" height="40" as="geometry" />
        </mxCell>
        <mxCell id="FoYIN4kyer_GURNDrp6f-495" value="" style="group" vertex="1" connectable="0" parent="FoYIN4kyer_GURNDrp6f-492">
          <mxGeometry x="44.888888888888886" width="112.22222222222221" height="40" as="geometry" />
        </mxCell>
        <mxCell id="FoYIN4kyer_GURNDrp6f-496" value="" style="verticalLabelPosition=bottom;verticalAlign=top;html=1;shape=mxgraph.basic.acute_triangle;dx=0.5;fillColor=#FFFF33;" vertex="1" parent="FoYIN4kyer_GURNDrp6f-495">
          <mxGeometry x="33.666666666666664" y="5" width="44.888888888888886" height="30" as="geometry" />
        </mxCell>
        <mxCell id="FoYIN4kyer_GURNDrp6f-497" value="&lt;font color=&quot;#ff3333&quot; style=&quot;font-size: 12px;&quot;&gt;!&lt;/font&gt;" style="text;strokeColor=none;fillColor=none;html=1;fontSize=24;fontStyle=1;verticalAlign=middle;align=center;" vertex="1" parent="FoYIN4kyer_GURNDrp6f-495">
          <mxGeometry width="112.22222222222221" height="40" as="geometry" />
        </mxCell>
        <mxCell id="FoYIN4kyer_GURNDrp6f-498" value="Sim" style="ellipse;shape=doubleEllipse;whiteSpace=wrap;html=1;" vertex="1" parent="FoYIN4kyer_GURNDrp6f-492">
          <mxGeometry x="33.666666666666664" y="60" width="56.11111111111111" height="30" as="geometry" />
        </mxCell>
        <mxCell id="FoYIN4kyer_GURNDrp6f-499" value="Não" style="ellipse;shape=doubleEllipse;whiteSpace=wrap;html=1;" vertex="1" parent="FoYIN4kyer_GURNDrp6f-492">
          <mxGeometry x="123.44444444444443" y="60" width="56.11111111111111" height="30" as="geometry" />
        </mxCell>
        <mxCell id="FoYIN4kyer_GURNDrp6f-469" value="" style="group" vertex="1" connectable="0" parent="FoYIN4kyer_GURNDrp6f-454">
          <mxGeometry x="20.000000000000014" y="385" width="220" height="30" as="geometry" />
        </mxCell>
        <mxCell id="FoYIN4kyer_GURNDrp6f-470" value="Voltar" style="shape=ext;double=1;rounded=1;whiteSpace=wrap;html=1;" vertex="1" parent="FoYIN4kyer_GURNDrp6f-469">
          <mxGeometry width="64.16666666666666" height="30" as="geometry" />
        </mxCell>
        <mxCell id="FoYIN4kyer_GURNDrp6f-471" value="Continuar" style="shape=ext;double=1;rounded=1;whiteSpace=wrap;html=1;" vertex="1" parent="FoYIN4kyer_GURNDrp6f-469">
          <mxGeometry x="75.16666666666666" width="64.16666666666666" height="30" as="geometry" />
        </mxCell>
        <mxCell id="FoYIN4kyer_GURNDrp6f-472" value="Cdastrar" style="shape=ext;double=1;rounded=1;whiteSpace=wrap;html=1;" vertex="1" parent="FoYIN4kyer_GURNDrp6f-469">
          <mxGeometry x="155.83333333333331" width="64.16666666666666" height="30" as="geometry" />
        </mxCell>
        <mxCell id="FoYIN4kyer_GURNDrp6f-473" value="Matéria-Prima" style="ellipse;shape=doubleEllipse;whiteSpace=wrap;html=1;" vertex="1" parent="FoYIN4kyer_GURNDrp6f-454">
          <mxGeometry x="70.00000000000001" y="55" width="116" height="60" as="geometry" />
        </mxCell>
        <mxCell id="FoYIN4kyer_GURNDrp6f-482" value="" style="group" vertex="1" connectable="0" parent="1">
          <mxGeometry x="1330" y="760" width="180" height="100" as="geometry" />
        </mxCell>
        <mxCell id="FoYIN4kyer_GURNDrp6f-483" value="" style="shape=ext;double=1;rounded=1;whiteSpace=wrap;html=1;" vertex="1" parent="FoYIN4kyer_GURNDrp6f-482">
          <mxGeometry width="180" height="100" as="geometry" />
        </mxCell>
        <mxCell id="FoYIN4kyer_GURNDrp6f-484" value="&lt;font color=&quot;#ff3333&quot; style=&quot;font-size: 12px;&quot;&gt;Tem certeza que deseja voltar!&lt;/font&gt;" style="text;strokeColor=none;fillColor=none;html=1;fontSize=24;fontStyle=1;verticalAlign=middle;align=center;" vertex="1" parent="FoYIN4kyer_GURNDrp6f-482">
          <mxGeometry y="20" width="180" height="40" as="geometry" />
        </mxCell>
        <mxCell id="FoYIN4kyer_GURNDrp6f-485" value="" style="group" vertex="1" connectable="0" parent="FoYIN4kyer_GURNDrp6f-482">
          <mxGeometry x="40" width="100" height="40" as="geometry" />
        </mxCell>
        <mxCell id="FoYIN4kyer_GURNDrp6f-486" value="" style="verticalLabelPosition=bottom;verticalAlign=top;html=1;shape=mxgraph.basic.acute_triangle;dx=0.5;fillColor=#FFFF33;" vertex="1" parent="FoYIN4kyer_GURNDrp6f-485">
          <mxGeometry x="30" y="5" width="40" height="30" as="geometry" />
        </mxCell>
        <mxCell id="FoYIN4kyer_GURNDrp6f-487" value="&lt;font color=&quot;#ff3333&quot; style=&quot;font-size: 12px;&quot;&gt;!&lt;/font&gt;" style="text;strokeColor=none;fillColor=none;html=1;fontSize=24;fontStyle=1;verticalAlign=middle;align=center;" vertex="1" parent="FoYIN4kyer_GURNDrp6f-485">
          <mxGeometry width="100" height="40" as="geometry" />
        </mxCell>
        <mxCell id="FoYIN4kyer_GURNDrp6f-488" value="Sim" style="ellipse;shape=doubleEllipse;whiteSpace=wrap;html=1;" vertex="1" parent="FoYIN4kyer_GURNDrp6f-482">
          <mxGeometry x="30" y="60" width="50" height="30" as="geometry" />
        </mxCell>
        <mxCell id="FoYIN4kyer_GURNDrp6f-489" value="Não" style="ellipse;shape=doubleEllipse;whiteSpace=wrap;html=1;" vertex="1" parent="FoYIN4kyer_GURNDrp6f-482">
          <mxGeometry x="110" y="60" width="50" height="30" as="geometry" />
        </mxCell>
        <mxCell id="FoYIN4kyer_GURNDrp6f-500" value="" style="shape=ext;double=1;rounded=1;whiteSpace=wrap;html=1;rotation=90;" vertex="1" parent="1">
          <mxGeometry x="1300" y="1814" width="480" height="250" as="geometry" />
        </mxCell>
        <mxCell id="FoYIN4kyer_GURNDrp6f-501" value="" style="shape=ext;double=1;rounded=1;whiteSpace=wrap;html=1;" vertex="1" parent="1">
          <mxGeometry x="1560" y="1830" width="140" height="20" as="geometry" />
        </mxCell>
        <mxCell id="FoYIN4kyer_GURNDrp6f-518" value="Matéria-Prima" style="ellipse;shape=doubleEllipse;whiteSpace=wrap;html=1;" vertex="1" parent="1">
          <mxGeometry x="1490" y="1740" width="116" height="60" as="geometry" />
        </mxCell>
        <mxCell id="FoYIN4kyer_GURNDrp6f-520" value="" style="group" vertex="1" connectable="0" parent="1">
          <mxGeometry x="880" y="1760" width="250" height="480" as="geometry" />
        </mxCell>
        <mxCell id="FoYIN4kyer_GURNDrp6f-521" value="" style="shape=ext;double=1;rounded=1;whiteSpace=wrap;html=1;rotation=90;" vertex="1" parent="FoYIN4kyer_GURNDrp6f-520">
          <mxGeometry x="-114.99999999999997" y="115" width="480" height="250" as="geometry" />
        </mxCell>
        <mxCell id="FoYIN4kyer_GURNDrp6f-522" value="" style="group" vertex="1" connectable="0" parent="FoYIN4kyer_GURNDrp6f-520">
          <mxGeometry x="15.000000000000014" y="160" width="220" height="160" as="geometry" />
        </mxCell>
        <mxCell id="FoYIN4kyer_GURNDrp6f-523" value="" style="shape=ext;double=1;rounded=1;whiteSpace=wrap;html=1;" vertex="1" parent="FoYIN4kyer_GURNDrp6f-522">
          <mxGeometry x="60" y="5" width="160" height="15" as="geometry" />
        </mxCell>
        <mxCell id="FoYIN4kyer_GURNDrp6f-524" value="" style="shape=ext;double=1;rounded=1;whiteSpace=wrap;html=1;" vertex="1" parent="FoYIN4kyer_GURNDrp6f-522">
          <mxGeometry x="60" y="55" width="160" height="15" as="geometry" />
        </mxCell>
        <mxCell id="FoYIN4kyer_GURNDrp6f-525" value="" style="shape=ext;double=1;rounded=1;whiteSpace=wrap;html=1;" vertex="1" parent="FoYIN4kyer_GURNDrp6f-522">
          <mxGeometry x="60" y="105" width="160" height="15" as="geometry" />
        </mxCell>
        <mxCell id="FoYIN4kyer_GURNDrp6f-526" value="&lt;span style=&quot;font-size: 12px;&quot;&gt;Tipo&lt;/span&gt;" style="text;strokeColor=none;fillColor=none;html=1;fontSize=24;fontStyle=1;verticalAlign=middle;align=center;" vertex="1" parent="FoYIN4kyer_GURNDrp6f-522">
          <mxGeometry x="12" width="60" height="20" as="geometry" />
        </mxCell>
        <mxCell id="FoYIN4kyer_GURNDrp6f-527" value="&lt;font style=&quot;font-size: 12px;&quot;&gt;Nome&lt;/font&gt;" style="text;strokeColor=none;fillColor=none;html=1;fontSize=24;fontStyle=1;verticalAlign=middle;align=center;" vertex="1" parent="FoYIN4kyer_GURNDrp6f-522">
          <mxGeometry x="10" y="50" width="60" height="20" as="geometry" />
        </mxCell>
        <mxCell id="FoYIN4kyer_GURNDrp6f-528" value="&lt;font style=&quot;font-size: 12px;&quot;&gt;Unidade&lt;/font&gt;" style="text;strokeColor=none;fillColor=none;html=1;fontSize=24;fontStyle=1;verticalAlign=middle;align=center;" vertex="1" parent="FoYIN4kyer_GURNDrp6f-522">
          <mxGeometry y="100" width="60" height="20" as="geometry" />
        </mxCell>
        <mxCell id="FoYIN4kyer_GURNDrp6f-529" value="" style="shape=ext;double=1;rounded=1;whiteSpace=wrap;html=1;" vertex="1" parent="FoYIN4kyer_GURNDrp6f-522">
          <mxGeometry x="60" y="145" width="160" height="15" as="geometry" />
        </mxCell>
        <mxCell id="FoYIN4kyer_GURNDrp6f-530" value="&lt;font style=&quot;font-size: 12px;&quot;&gt;Valor&lt;/font&gt;" style="text;strokeColor=none;fillColor=none;html=1;fontSize=24;fontStyle=1;verticalAlign=middle;align=center;" vertex="1" parent="FoYIN4kyer_GURNDrp6f-522">
          <mxGeometry x="12" y="140" width="60" height="20" as="geometry" />
        </mxCell>
        <mxCell id="FoYIN4kyer_GURNDrp6f-531" value="" style="group" vertex="1" connectable="0" parent="FoYIN4kyer_GURNDrp6f-520">
          <mxGeometry x="20.000000000000014" y="385" width="220" height="30" as="geometry" />
        </mxCell>
        <mxCell id="FoYIN4kyer_GURNDrp6f-532" value="Voltar" style="shape=ext;double=1;rounded=1;whiteSpace=wrap;html=1;" vertex="1" parent="FoYIN4kyer_GURNDrp6f-531">
          <mxGeometry width="64.16666666666666" height="30" as="geometry" />
        </mxCell>
        <mxCell id="FoYIN4kyer_GURNDrp6f-533" value="Continuar" style="shape=ext;double=1;rounded=1;whiteSpace=wrap;html=1;" vertex="1" parent="FoYIN4kyer_GURNDrp6f-531">
          <mxGeometry x="75.16666666666666" width="64.16666666666666" height="30" as="geometry" />
        </mxCell>
        <mxCell id="FoYIN4kyer_GURNDrp6f-534" value="Cdastrar" style="shape=ext;double=1;rounded=1;whiteSpace=wrap;html=1;" vertex="1" parent="FoYIN4kyer_GURNDrp6f-531">
          <mxGeometry x="155.83333333333331" width="64.16666666666666" height="30" as="geometry" />
        </mxCell>
        <mxCell id="FoYIN4kyer_GURNDrp6f-535" value="Matéria-Prima" style="ellipse;shape=doubleEllipse;whiteSpace=wrap;html=1;" vertex="1" parent="FoYIN4kyer_GURNDrp6f-520">
          <mxGeometry x="70.00000000000001" y="55" width="116" height="60" as="geometry" />
        </mxCell>
        <mxCell id="FoYIN4kyer_GURNDrp6f-562" value="unidade" style="shape=table;startSize=30;container=1;collapsible=0;childLayout=tableLayout;fixedRows=1;rowLines=0;fontStyle=0;strokeColor=default;fontSize=16;fillColor=#000000;fontColor=#FFFFFF;" vertex="1" parent="FoYIN4kyer_GURNDrp6f-520">
          <mxGeometry x="80" y="270" width="120" height="120" as="geometry" />
        </mxCell>
        <mxCell id="FoYIN4kyer_GURNDrp6f-563" value="" style="shape=tableRow;horizontal=0;startSize=0;swimlaneHead=0;swimlaneBody=0;top=0;left=0;bottom=0;right=0;collapsible=0;dropTarget=0;fillColor=none;points=[[0,0.5],[1,0.5]];portConstraint=eastwest;strokeColor=inherit;fontSize=16;" vertex="1" parent="FoYIN4kyer_GURNDrp6f-562">
          <mxGeometry y="30" width="120" height="30" as="geometry" />
        </mxCell>
        <mxCell id="FoYIN4kyer_GURNDrp6f-564" value="&lt;font color=&quot;#ffffff&quot;&gt;+&lt;/font&gt;" style="shape=partialRectangle;html=1;whiteSpace=wrap;connectable=0;fillColor=#666666;top=0;left=0;bottom=0;right=0;overflow=hidden;pointerEvents=1;strokeColor=#001DBC;fontSize=16;fontColor=#ffffff;" vertex="1" parent="FoYIN4kyer_GURNDrp6f-563">
          <mxGeometry width="27" height="30" as="geometry">
            <mxRectangle width="27" height="30" as="alternateBounds" />
          </mxGeometry>
        </mxCell>
        <mxCell id="FoYIN4kyer_GURNDrp6f-565" value="&lt;font color=&quot;#ffffff&quot;&gt;Kg&lt;/font&gt;" style="shape=partialRectangle;html=1;whiteSpace=wrap;connectable=0;fillColor=#666666;top=0;left=0;bottom=0;right=0;align=left;spacingLeft=6;overflow=hidden;strokeColor=#666666;fontSize=16;fontColor=#ffffff;" vertex="1" parent="FoYIN4kyer_GURNDrp6f-563">
          <mxGeometry x="27" width="93" height="30" as="geometry">
            <mxRectangle width="93" height="30" as="alternateBounds" />
          </mxGeometry>
        </mxCell>
        <mxCell id="FoYIN4kyer_GURNDrp6f-566" value="" style="shape=tableRow;horizontal=0;startSize=0;swimlaneHead=0;swimlaneBody=0;top=0;left=0;bottom=0;right=0;collapsible=0;dropTarget=0;fillColor=none;points=[[0,0.5],[1,0.5]];portConstraint=eastwest;strokeColor=inherit;fontSize=16;" vertex="1" parent="FoYIN4kyer_GURNDrp6f-562">
          <mxGeometry y="60" width="120" height="30" as="geometry" />
        </mxCell>
        <mxCell id="FoYIN4kyer_GURNDrp6f-567" value="&lt;font color=&quot;#ffffff&quot;&gt;+&lt;/font&gt;" style="shape=partialRectangle;html=1;whiteSpace=wrap;connectable=0;fillColor=#666666;top=0;left=0;bottom=0;right=0;overflow=hidden;strokeColor=#001DBC;fontSize=16;fontColor=#ffffff;" vertex="1" parent="FoYIN4kyer_GURNDrp6f-566">
          <mxGeometry width="27" height="30" as="geometry">
            <mxRectangle width="27" height="30" as="alternateBounds" />
          </mxGeometry>
        </mxCell>
        <mxCell id="FoYIN4kyer_GURNDrp6f-568" value="&lt;font color=&quot;#ffffff&quot;&gt;Metro&lt;/font&gt;" style="shape=partialRectangle;html=1;whiteSpace=wrap;connectable=0;fillColor=#666666;top=0;left=0;bottom=0;right=0;align=left;spacingLeft=6;overflow=hidden;strokeColor=#001DBC;fontSize=16;fontColor=#ffffff;" vertex="1" parent="FoYIN4kyer_GURNDrp6f-566">
          <mxGeometry x="27" width="93" height="30" as="geometry">
            <mxRectangle width="93" height="30" as="alternateBounds" />
          </mxGeometry>
        </mxCell>
        <mxCell id="FoYIN4kyer_GURNDrp6f-569" value="" style="shape=tableRow;horizontal=0;startSize=0;swimlaneHead=0;swimlaneBody=0;top=0;left=0;bottom=0;right=0;collapsible=0;dropTarget=0;fillColor=none;points=[[0,0.5],[1,0.5]];portConstraint=eastwest;strokeColor=inherit;fontSize=16;" vertex="1" parent="FoYIN4kyer_GURNDrp6f-562">
          <mxGeometry y="90" width="120" height="30" as="geometry" />
        </mxCell>
        <mxCell id="FoYIN4kyer_GURNDrp6f-570" value="&lt;font color=&quot;#ffffff&quot;&gt;+&lt;/font&gt;" style="shape=partialRectangle;html=1;whiteSpace=wrap;connectable=0;fillColor=#666666;top=0;left=0;bottom=0;right=0;overflow=hidden;strokeColor=#001DBC;fontSize=16;fontColor=#ffffff;" vertex="1" parent="FoYIN4kyer_GURNDrp6f-569">
          <mxGeometry width="27" height="30" as="geometry">
            <mxRectangle width="27" height="30" as="alternateBounds" />
          </mxGeometry>
        </mxCell>
        <mxCell id="FoYIN4kyer_GURNDrp6f-571" value="&lt;font color=&quot;#ffffff&quot;&gt;Metro2&lt;/font&gt;" style="shape=partialRectangle;html=1;whiteSpace=wrap;connectable=0;fillColor=#666666;top=0;left=0;bottom=0;right=0;align=left;spacingLeft=6;overflow=hidden;strokeColor=#001DBC;fontSize=16;fontColor=#ffffff;" vertex="1" parent="FoYIN4kyer_GURNDrp6f-569">
          <mxGeometry x="27" width="93" height="30" as="geometry">
            <mxRectangle width="93" height="30" as="alternateBounds" />
          </mxGeometry>
        </mxCell>
      </root>
    </mxGraphModel>
  </diagram>
</mxfile>
